<svg xmlns="http://www.w3.org/2000/svg" width="20.012" height="20.012" viewBox="0 0 20.012 20.012">
  <path id="Caminho_236" data-name="Caminho 236" d="M82.369,196.633a10.006,10.006,0,1,0,10.006,10.006A10.006,10.006,0,0,0,82.369,196.633Zm4.6,14.459a.6.6,0,0,1-.851.2c-2.351-1.451-5.3-1.751-8.805-.95a.619.619,0,1,1-.3-1.2c3.8-.851,7.1-.5,9.706,1.1A.6.6,0,0,1,86.972,211.092Zm1.2-2.752a.754.754,0,0,1-1.051.25,12.97,12.97,0,0,0-9.956-1.151.76.76,0,1,1-.45-1.451,14.636,14.636,0,0,1,11.256,1.351A.707.707,0,0,1,88.173,208.34Zm.1-2.8c-3.2-1.9-8.555-2.1-11.607-1.151a.918.918,0,1,1-.55-1.751c3.552-1.05,9.405-.85,13.108,1.351a.967.967,0,0,1,.35,1.3A1.048,1.048,0,0,1,88.272,205.538Z" transform="translate(-72.363 -196.633)" fill="#50b4c8"/>
</svg>
