<svg xmlns="http://www.w3.org/2000/svg" width="19.248" height="19.267" viewBox="0 0 19.248 19.267">
  <g id="Grupo_23" data-name="Grupo 23" transform="translate(0 0)">
    <path id="Caminho_13" data-name="Caminho 13" d="M149.7,50.5c1.293.023,2.586.036,3.878.072a6.306,6.306,0,0,1,3.184.827,4.791,4.791,0,0,1,2.312,3.391,17.206,17.206,0,0,1,.216,2.661c.029,1.911.018,3.823,0,5.735a9.3,9.3,0,0,1-.377,2.975,4.835,4.835,0,0,1-3.883,3.374,15.625,15.625,0,0,1-2.661.217c-1.9.029-3.809.017-5.713,0a9.388,9.388,0,0,1-2.976-.374,4.837,4.837,0,0,1-3.382-3.876,15.35,15.35,0,0,1-.218-2.661c-.029-1.911-.018-3.823,0-5.735a9.316,9.316,0,0,1,.377-2.975,4.836,4.836,0,0,1,3.883-3.373A18.11,18.11,0,0,1,147,50.531c.9-.035,1.8-.008,2.7-.008Zm7.9,9.489h-.039c0-.759.016-1.519,0-2.277-.019-.73-.048-1.461-.121-2.187a3.234,3.234,0,0,0-2.735-3.053,15.3,15.3,0,0,0-2.577-.2c-1.63-.03-3.262-.026-4.892,0a17.524,17.524,0,0,0-2.434.168,3.141,3.141,0,0,0-2.727,2.393,5.675,5.675,0,0,0-.207,1.37c-.041,1.742-.067,3.485-.061,5.227,0,1.108.029,2.221.126,3.325a3.228,3.228,0,0,0,2.781,3.079,15.873,15.873,0,0,0,2.559.186c1.609.027,3.219.02,4.829,0,.736-.008,1.474-.049,2.207-.122a3.512,3.512,0,0,0,1.879-.729,3.565,3.565,0,0,0,1.293-2.776C157.551,62.922,157.565,61.453,157.6,59.985Z" transform="translate(-140.059 -50.496)" fill="#50b4c8"/>
    <path id="Caminho_14" data-name="Caminho 14" d="M160.191,65.733a4.941,4.941,0,1,1-4.894-4.946A4.923,4.923,0,0,1,160.191,65.733Zm-4.944,3.2a3.206,3.206,0,1,0-3.2-3.208A3.222,3.222,0,0,0,155.248,68.934Z" transform="translate(-145.626 -56.085)" fill="#50b4c8"/>
    <path id="Caminho_15" data-name="Caminho 15" d="M172.136,58.983a1.158,1.158,0,0,1-1.155,1.168,1.174,1.174,0,0,1-1.163-1.17,1.157,1.157,0,0,1,1.155-1.148A1.134,1.134,0,0,1,172.136,58.983Z" transform="translate(-156.221 -54.481)" fill="#50b4c8"/>
  </g>
</svg>
