<svg xmlns="http://www.w3.org/2000/svg" width="24.095" height="22.698" viewBox="0 0 24.095 22.698">
  <path id="Caminho_267" data-name="Caminho 267" d="M23.521,17.395a.759.759,0,0,0-.59-.324L8.256,16.438a.759.759,0,0,0-.065,1.517l13.682.59-2.69,8.393H7.211L5.048,15.162a.759.759,0,0,0-.469-.569L1.037,13.2a.759.759,0,1,0-.555,1.413l3.15,1.237,2.2,11.983a.759.759,0,0,0,.747.622h.365L6.11,30.772a.633.633,0,0,0,.6.847H7.29a2.277,2.277,0,1,0,3.385,0H15.64a2.277,2.277,0,1,0,3.385,0h.711a.633.633,0,1,0,0-1.265H7.605l.683-1.9H19.736a.759.759,0,0,0,.723-.527l3.163-9.868A.757.757,0,0,0,23.521,17.395ZM8.982,34.149a1.012,1.012,0,1,1,1.012-1.012A1.013,1.013,0,0,1,8.982,34.149Zm8.35,0a1.012,1.012,0,1,1,1.012-1.012A1.013,1.013,0,0,1,17.332,34.149Z" transform="translate(0.232 -12.916)" fill="#fff" stroke="#50b4c8" stroke-width="0.4"/>
</svg>
