<svg id="like" xmlns="http://www.w3.org/2000/svg" width="23.19" height="21.561" viewBox="0 0 23.19 21.561">
  <path id="Caminho_35" data-name="Caminho 35" d="M23.152,8.255c-.339-3.726-2.976-6.429-6.276-6.429a6.238,6.238,0,0,0-5.345,3.08,6.012,6.012,0,0,0-5.217-3.08c-3.3,0-5.937,2.7-6.275,6.429a6.629,6.629,0,0,0,.2,2.443,10.479,10.479,0,0,0,3.211,5.358l8.079,7.332,8.218-7.331A10.48,10.48,0,0,0,22.954,10.7,6.644,6.644,0,0,0,23.152,8.255Zm-1.066,2.238a9.584,9.584,0,0,1-2.939,4.9l-7.616,6.795L4.046,15.395a9.591,9.591,0,0,1-2.942-4.9A5.792,5.792,0,0,1,.919,8.4l.007-.045c.29-3.264,2.556-5.634,5.389-5.634a5.228,5.228,0,0,1,4.8,3.352l.411.974.411-.974a5.388,5.388,0,0,1,4.937-3.351c2.832,0,5.1,2.37,5.395,5.676A5.786,5.786,0,0,1,22.086,10.494Z" transform="translate(0 -1.826)" fill="#fff"/>
  <path id="Caminho_36" data-name="Caminho 36" d="M10.459,7.9A4.465,4.465,0,0,0,6,12.364a.446.446,0,1,0,.892,0A3.572,3.572,0,0,1,10.459,8.8a.446.446,0,0,0,0-.892Z" transform="translate(-3.324 -5.193)" fill="#fff"/>
</svg>
