<svg xmlns="http://www.w3.org/2000/svg" width="22.366" height="22.366" viewBox="0 0 22.366 22.366">
  <g id="gift" transform="translate(0.05 0.05)">
    <path id="Caminho_1" data-name="Caminho 1" d="M28.368,15.312a2.571,2.571,0,0,0,.686-1.754A2.537,2.537,0,0,0,26.541,11c-1.045,0-3.454,1.563-4.417,2.967-1-1.4-3.394-2.922-4.4-2.922A2.54,2.54,0,0,0,15.212,13.6a2.572,2.572,0,0,0,.641,1.7H11V21.42h1.327V33.266H31.944V21.424h1.322V15.312ZM26.541,11.95A1.6,1.6,0,0,1,28.1,13.608a1.657,1.657,0,0,1-1.281,1.631H22.978c-.245-.073-.323-.159-.323-.209C22.656,14.222,25.5,11.95,26.541,11.95Zm-8.816,0c1,0,3.885,2.272,3.885,3.081,0,.073-.168.155-.291.209H17.448a1.657,1.657,0,0,1-1.281-1.631,1.623,1.623,0,0,1,1.559-1.659Zm1.563,20.367H13.272V21.424h6.016Zm0-11.792H11.95V16.262h7.343v4.262Zm4.735,11.792h-3.79V16.258h3.79Zm6.966,0H24.973V21.424h6.016Zm1.322-11.792H24.973V16.262h7.343v4.262Z" transform="translate(-11 -11)" fill="#fff" stroke="#fff" stroke-width="0.1"/>
  </g>
</svg>
