<svg xmlns="http://www.w3.org/2000/svg" width="16.186" height="20.234" viewBox="0 0 16.186 20.234">
  <path id="Caminho_222" data-name="Caminho 222" d="M614.048,327.071c-5.705,0-8.583,3.957-8.583,7.258a6.6,6.6,0,0,0,.223,1.744,3.824,3.824,0,0,0,2.237,2.7.413.413,0,0,0,.6-.288c.056-.2.186-.721.246-.935a.548.548,0,0,0-.172-.646,3.114,3.114,0,0,1-.655-1.2,3.953,3.953,0,0,1-.14-1.074,5.6,5.6,0,0,1,5.914-5.57c3.222,0,5,1.906,5,4.454a10.335,10.335,0,0,1-.223,2.148c-.5,2.329-1.818,4.031-3.585,4.031a1.816,1.816,0,0,1-1.9-2.237c.172-.7.423-1.432.632-2.116a7.366,7.366,0,0,0,.428-2.009,1.573,1.573,0,0,0-1.618-1.744c-1.288,0-2.32,1.283-2.32,3a4.763,4.763,0,0,0,.084.869,3.8,3.8,0,0,0,.3.972s-1.316,5.389-1.543,6.333a12.6,12.6,0,0,0-.037,4.417.162.162,0,0,0,.288.065,12.376,12.376,0,0,0,2.167-3.8c.149-.521.842-3.2.842-3.2a3.481,3.481,0,0,0,2.934,1.451c3.148,0,5.468-2.26,6.221-5.561a10.8,10.8,0,0,0,.26-2.4c0-3.45-3.018-6.658-7.6-6.658Z" transform="translate(-605.465 -327.071)" fill="#fefefe" fill-rule="evenodd"/>
</svg>
