<svg id="Grupo_2195" data-name="Grupo 2195" xmlns="http://www.w3.org/2000/svg" xmlns:xlink="http://www.w3.org/1999/xlink" width="440.793" height="42.077" viewBox="0 0 440.793 42.077">
  <defs>
    <linearGradient id="linear-gradient" x1="-2.251" y1="0.518" x2="0.982" y2="0.498" gradientUnits="objectBoundingBox">
      <stop offset="0" stop-color="#121e4e"/>
      <stop offset="1" stop-color="#1b338a"/>
    </linearGradient>
    <linearGradient id="linear-gradient-2" x1="-1.738" y1="0.511" x2="2.08" y2="0.492" xlink:href="#linear-gradient"/>
    <linearGradient id="linear-gradient-3" x1="0.147" y1="0.502" x2="2.623" y2="0.482" xlink:href="#linear-gradient"/>
    <linearGradient id="linear-gradient-4" x1="-1.967" y1="0.508" x2="4.38" y2="0.488" xlink:href="#linear-gradient"/>
  </defs>
  <g id="Grupo_239" data-name="Grupo 239">
    <g id="Grupo_219" data-name="Grupo 219" transform="translate(317.997 7.102)">
      <path id="Caminho_92" data-name="Caminho 92" d="M517.331,87.089c7.648.037,14.63-6.236,14.63-13.869,0-8.345-6.982-14.114-14.63-14.112h-6.583a13.8,13.8,0,0,0-14.111,14.112,14.018,14.018,0,0,0,14.111,13.869Z" transform="translate(-496.637 -59.109)" fill="#005297"/>
      <path id="Caminho_93" data-name="Caminho 93" d="M517.036,83.554V68.4a8.113,8.113,0,0,1,0,15.155m-11.023-7.578a8.134,8.134,0,0,1,5.211-7.577V83.551a8.129,8.129,0,0,1-5.211-7.575m8.117-12.809a12.808,12.808,0,1,0,12.808,12.809,12.809,12.809,0,0,0-12.808-12.809" transform="translate(-499.989 -62.011)" fill="#fff"/>
    </g>
    <g id="Grupo_220" data-name="Grupo 220" transform="translate(371.378 8.433)">
      <path id="Caminho_132" data-name="Caminho 132" d="M170.942,345.036v-10.9h11.539l1.238,1.614L185,334.138h41.883v10.147a4.835,4.835,0,0,1-2.362.752H201.328l-1.4-1.718v1.718h-4.574V342.1a3.838,3.838,0,0,1-1.976.409h-1.557v2.523H184.9l-1.236-1.649-1.255,1.649Z" transform="translate(-157.467 -319.858)" fill="#fff" fill-rule="evenodd"/>
      <path id="Caminho_133" data-name="Caminho 133" d="M136,303.174l2.6-6.067h4.5l1.477,3.4v-3.4h5.594l.879,2.456.853-2.456h25.111v1.234a5.418,5.418,0,0,1,3.49-1.234l8.148.029,1.451,3.354v-3.382h4.681l1.288,1.926v-1.926H200.8v10.9h-4.724l-1.235-1.932v1.932h-6.878l-.691-1.718H185.42l-.68,1.718h-4.664a4.612,4.612,0,0,1-3.06-1.209v1.209h-7.032l-1.4-1.718v1.718H142.436l-.691-1.718H139.9l-.686,1.718H136v-4.831Z" transform="translate(-136 -297.108)" fill="#fff" fill-rule="evenodd"/>
      <path id="Caminho_134" data-name="Caminho 134" d="M139.545,300.592l-3.51,8.16h2.285l.647-1.634h3.765l.644,1.634h2.335l-3.506-8.16Zm1.3,1.9,1.148,2.856h-2.3l1.151-2.856Z" transform="translate(-136.022 -299.248)" fill="#016fd0" fill-rule="evenodd"/>
      <path id="Caminho_135" data-name="Caminho 135" d="M161.754,308.748v-8.16L165,300.6l1.889,5.261,1.843-5.273h3.221v8.16h-2.04v-6.013l-2.163,6.013h-1.789l-2.169-6.013v6.013Z" transform="translate(-151.822 -299.246)" fill="#016fd0" fill-rule="evenodd"/>
      <path id="Caminho_136" data-name="Caminho 136" d="M191.824,308.748v-8.16h6.657v1.825h-4.6v1.4h4.488v1.718h-4.488v1.449h4.6v1.772Z" transform="translate(-170.296 -299.246)" fill="#016fd0" fill-rule="evenodd"/>
      <path id="Caminho_137" data-name="Caminho 137" d="M212.149,300.592v8.16h2.04v-2.9h.859l2.446,2.9h2.493l-2.684-3.006a2.485,2.485,0,0,0,2.238-2.507,2.64,2.64,0,0,0-2.852-2.647Zm2.04,1.825h2.332a.936.936,0,0,1,.966.859.922.922,0,0,1-.936.859h-2.362v-1.718Z" transform="translate(-182.783 -299.248)" fill="#016fd0" fill-rule="evenodd"/>
      <path id="Caminho_138" data-name="Caminho 138" d="M235.559,308.748h-2.083v-8.16h2.083v8.16Z" transform="translate(-195.886 -299.246)" fill="#016fd0" fill-rule="evenodd"/>
      <path id="Caminho_139" data-name="Caminho 139" d="M245.4,308.748h-.45c-2.175,0-3.5-1.714-3.5-4.046,0-2.39,1.306-4.114,4.053-4.114h2.255v1.933h-2.337a1.963,1.963,0,0,0-1.9,2.2,2,2,0,0,0,2.2,2.244h.537l-.859,1.782Z" transform="translate(-200.786 -299.246)" fill="#016fd0" fill-rule="evenodd"/>
      <path id="Caminho_140" data-name="Caminho 140" d="M257.6,300.592l-3.51,8.16h2.285l.647-1.634h3.765l.644,1.634h2.335l-3.507-8.16Zm1.3,1.9,1.147,2.856h-2.3l1.151-2.856Z" transform="translate(-208.553 -299.248)" fill="#016fd0" fill-rule="evenodd"/>
      <path id="Caminho_141" data-name="Caminho 141" d="M279.805,308.748v-8.16H282.4l3.312,5.127v-5.127h2.04v8.16h-2.51l-3.4-5.261v5.261Z" transform="translate(-224.349 -299.246)" fill="#016fd0" fill-rule="evenodd"/>
      <path id="Caminho_142" data-name="Caminho 142" d="M174.562,345.778v-8.16h6.657v1.825h-4.6v1.4h4.488v1.718h-4.488v1.449h4.6v1.772Z" transform="translate(-159.691 -321.996)" fill="#016fd0" fill-rule="evenodd"/>
      <path id="Caminho_143" data-name="Caminho 143" d="M259.146,345.778v-8.16H265.8v1.825h-4.6v1.4h4.467v1.718h-4.467v1.449h4.6v1.772Z" transform="translate(-211.657 -321.996)" fill="#016fd0" fill-rule="evenodd"/>
      <path id="Caminho_144" data-name="Caminho 144" d="M192.371,345.778l3.241-4.03-3.318-4.13h2.57l1.976,2.553,1.983-2.553h2.47l-3.275,4.08,3.247,4.08H198.7l-1.919-2.513-1.872,2.513Z" transform="translate(-170.585 -321.996)" fill="#016fd0" fill-rule="evenodd"/>
      <path id="Caminho_145" data-name="Caminho 145" d="M216.186,337.622v8.16h2.094v-2.577h2.147c1.817,0,3.195-.964,3.195-2.839a2.686,2.686,0,0,0-2.929-2.745Zm2.094,1.845h2.261a.921.921,0,0,1,1.007.94.941.941,0,0,1-1.013.94H218.28v-1.879Z" transform="translate(-185.263 -321.999)" fill="#016fd0" fill-rule="evenodd"/>
      <path id="Caminho_146" data-name="Caminho 146" d="M237.763,337.618v8.16h2.04v-2.9h.859l2.446,2.9H245.6l-2.684-3.006a2.485,2.485,0,0,0,2.238-2.506,2.64,2.64,0,0,0-2.852-2.647Zm2.04,1.826h2.332a.936.936,0,0,1,.966.859.922.922,0,0,1-.936.859H239.8v-1.718Z" transform="translate(-198.52 -321.996)" fill="#016fd0" fill-rule="evenodd"/>
      <path id="Caminho_147" data-name="Caminho 147" d="M278.446,345.778v-1.772h4.083c.6,0,.866-.326.866-.685,0-.343-.261-.69-.866-.69h-1.845a2.281,2.281,0,0,1-2.5-2.444c0-1.309.818-2.57,3.2-2.57h3.973l-.859,1.836h-3.436c-.657,0-.859.345-.859.674a.711.711,0,0,0,.752.712h1.932a2.239,2.239,0,0,1,2.564,2.342,2.447,2.447,0,0,1-2.661,2.6Z" transform="translate(-223.355 -321.996)" fill="#016fd0" fill-rule="evenodd"/>
      <path id="Caminho_148" data-name="Caminho 148" d="M297.862,345.778v-1.772h3.91c.6,0,.866-.326.866-.685,0-.343-.261-.69-.866-.69H300.1a2.281,2.281,0,0,1-2.5-2.444c0-1.309.818-2.57,3.2-2.57H304.7l-.859,1.836h-3.357c-.657,0-.859.345-.859.674a.711.711,0,0,0,.752.712h1.76a2.238,2.238,0,0,1,2.563,2.342,2.447,2.447,0,0,1-2.661,2.6Z" transform="translate(-235.283 -321.996)" fill="#016fd0" fill-rule="evenodd"/>
    </g>
    <g id="Grupo_217" data-name="Grupo 217" transform="translate(169.431)">
      <g id="Grupo_208" data-name="Grupo 208" transform="translate(0)">
        <g id="Grupo_205" data-name="Grupo 205" transform="translate(2.732 35.593)">
          <path id="Caminho_149" data-name="Caminho 149" d="M184.169,648.492a1.64,1.64,0,0,0-.553-.363,1.85,1.85,0,0,0-.7-.129,2.658,2.658,0,0,0-.418.035,1.838,1.838,0,0,0-.425.122,1.62,1.62,0,0,0-.4.243,1.46,1.46,0,0,0-.326.391,1.593,1.593,0,0,0-.606-.58,1.787,1.787,0,0,0-.875-.21,2.019,2.019,0,0,0-.342.03,1.548,1.548,0,0,0-.351.1,1.394,1.394,0,0,0-.622.523v-.541h-.931v4.429h.939v-2.455a1.324,1.324,0,0,1,.089-.5,1.085,1.085,0,0,1,.24-.368,1,1,0,0,1,.351-.224,1.2,1.2,0,0,1,.43-.077.925.925,0,0,1,.736.3,1.271,1.271,0,0,1,.262.86v2.464h.94v-2.455a1.319,1.319,0,0,1,.089-.5,1.081,1.081,0,0,1,.239-.368,1,1,0,0,1,.351-.224,1.2,1.2,0,0,1,.43-.077.925.925,0,0,1,.736.3,1.27,1.27,0,0,1,.262.86v2.464h.94v-2.783a1.925,1.925,0,0,0-.128-.712A1.62,1.62,0,0,0,184.169,648.492Z" transform="translate(-177.623 -646.315)" fill="#161615"/>
          <path id="Caminho_150" data-name="Caminho 150" d="M218.105,648.651a1.733,1.733,0,0,0-.573-.474,1.752,1.752,0,0,0-.818-.178,2.159,2.159,0,0,0-1.572.657,2.238,2.238,0,0,0-.472.737,2.647,2.647,0,0,0,0,1.872,2.237,2.237,0,0,0,.472.737,2.159,2.159,0,0,0,1.572.657,1.772,1.772,0,0,0,.818-.176,1.707,1.707,0,0,0,.573-.471v.532h.966v-4.429h-.966Zm-.037,2.242a1.343,1.343,0,0,1-.273.448,1.27,1.27,0,0,1-.421.3,1.438,1.438,0,0,1-1.107,0,1.253,1.253,0,0,1-.418-.305,1.353,1.353,0,0,1-.263-.451,1.681,1.681,0,0,1,0-1.1,1.347,1.347,0,0,1,.263-.451,1.251,1.251,0,0,1,.418-.305,1.438,1.438,0,0,1,1.107,0,1.267,1.267,0,0,1,.421.3,1.346,1.346,0,0,1,.273.448,1.685,1.685,0,0,1,0,1.128Z" transform="translate(-206.604 -646.315)" fill="#161615"/>
          <path id="Caminho_151" data-name="Caminho 151" d="M243.721,650.339a2.389,2.389,0,0,0-1.133-.423l-.458-.069q-.152-.023-.287-.053a.914.914,0,0,1-.231-.081.437.437,0,0,1-.155-.129.319.319,0,0,1-.058-.194.44.44,0,0,1,.22-.381,1.109,1.109,0,0,1,.617-.146,2.27,2.27,0,0,1,.409.037,3.379,3.379,0,0,1,.381.093,2.777,2.777,0,0,1,.578.25l.416-.754a2.846,2.846,0,0,0-.809-.344,3.837,3.837,0,0,0-.985-.122,2.708,2.708,0,0,0-.763.1,1.75,1.75,0,0,0-.575.282,1.23,1.23,0,0,0-.365.446,1.343,1.343,0,0,0-.127.592,1.092,1.092,0,0,0,.382.867,2.129,2.129,0,0,0,1.121.432l.463.06a1.456,1.456,0,0,1,.583.178.364.364,0,0,1,.185.312.442.442,0,0,1-.254.4,1.554,1.554,0,0,1-.754.145,2.908,2.908,0,0,1-.488-.037,2.441,2.441,0,0,1-.393-.1,1.892,1.892,0,0,1-.319-.143,2.336,2.336,0,0,1-.261-.173l-.448.726a2.382,2.382,0,0,0,.5.291,3.472,3.472,0,0,0,.518.173,3.249,3.249,0,0,0,.481.083q.226.021.4.021a3.135,3.135,0,0,0,.853-.107,1.916,1.916,0,0,0,.633-.3,1.323,1.323,0,0,0,.393-.458,1.263,1.263,0,0,0,.136-.585A1.058,1.058,0,0,0,243.721,650.339Z" transform="translate(-226.813 -646.332)" fill="#161615"/>
          <path id="Caminho_152" data-name="Caminho 152" d="M285.222,648.644a1.89,1.89,0,0,0-.661-.476,2.1,2.1,0,0,0-.848-.169,2.3,2.3,0,0,0-.895.169,2.01,2.01,0,0,0-.7.476,2.162,2.162,0,0,0-.453.737,2.67,2.67,0,0,0-.162.948,2.633,2.633,0,0,0,.166.957,2.126,2.126,0,0,0,.467.735,2.066,2.066,0,0,0,.716.471,2.442,2.442,0,0,0,.915.167,3.267,3.267,0,0,0,.959-.139,2.411,2.411,0,0,0,.862-.485l-.481-.689a2.162,2.162,0,0,1-.612.344,1.934,1.934,0,0,1-.668.123,1.577,1.577,0,0,1-.453-.065,1.188,1.188,0,0,1-.393-.2,1.213,1.213,0,0,1-.3-.349,1.436,1.436,0,0,1-.171-.513h3.273q.009-.083.014-.176c0-.062,0-.123,0-.185a2.755,2.755,0,0,0-.155-.946A2.222,2.222,0,0,0,285.222,648.644Zm-2.7,1.306a1.66,1.66,0,0,1,.129-.441,1.192,1.192,0,0,1,.238-.347,1,1,0,0,1,.347-.224,1.254,1.254,0,0,1,.46-.079,1.028,1.028,0,0,1,.754.287,1.383,1.383,0,0,1,.37.8Z" transform="translate(-259.268 -646.315)" fill="#161615"/>
          <path id="Caminho_153" data-name="Caminho 153" d="M345.581,648.651a1.73,1.73,0,0,0-.573-.474,1.752,1.752,0,0,0-.818-.178,2.159,2.159,0,0,0-1.572.657,2.237,2.237,0,0,0-.472.737,2.646,2.646,0,0,0,0,1.872,2.236,2.236,0,0,0,.472.737,2.159,2.159,0,0,0,1.572.657,1.772,1.772,0,0,0,.818-.176,1.7,1.7,0,0,0,.573-.471v.532h.966v-4.429h-.966Zm-.037,2.242a1.346,1.346,0,0,1-.273.448,1.271,1.271,0,0,1-.421.3,1.438,1.438,0,0,1-1.107,0,1.253,1.253,0,0,1-.418-.305,1.355,1.355,0,0,1-.264-.451,1.683,1.683,0,0,1,0-1.1,1.35,1.35,0,0,1,.264-.451,1.252,1.252,0,0,1,.418-.305,1.438,1.438,0,0,1,1.107,0,1.268,1.268,0,0,1,.421.3,1.349,1.349,0,0,1,.273.448,1.688,1.688,0,0,1,0,1.128Z" transform="translate(-306.79 -646.315)" fill="#161615"/>
          <path id="Caminho_154" data-name="Caminho 154" d="M264.88,647.164a1.3,1.3,0,0,1-.46.088.8.8,0,0,1-.275-.046.566.566,0,0,1-.222-.145.7.7,0,0,1-.15-.257,1.143,1.143,0,0,1-.056-.379V644.5h1.552v-.878h-1.552v-1.341h-.971v1.341h-.883v.878h.883v1.946a1.774,1.774,0,0,0,.418,1.3,1.584,1.584,0,0,0,1.172.418,2.093,2.093,0,0,0,.756-.129,3.164,3.164,0,0,0,.413-.194l-.33-.809A2.492,2.492,0,0,1,264.88,647.164Z" transform="translate(-243.828 -641.818)" fill="#161615"/>
          <path id="Caminho_155" data-name="Caminho 155" d="M308.762,648a1.771,1.771,0,0,0-.735.148,1.561,1.561,0,0,0-.55.549v-.581H306.6v4.429h.887v-2.437a1.5,1.5,0,0,1,.079-.5,1.086,1.086,0,0,1,.217-.374.9.9,0,0,1,.333-.231,1.122,1.122,0,0,1,.425-.079,1.89,1.89,0,0,1,.379.042,1.558,1.558,0,0,1,.194.052l.286-.924a1.76,1.76,0,0,0-.237-.059A2.392,2.392,0,0,0,308.762,648Z" transform="translate(-278.987 -646.315)" fill="#161615"/>
          <path id="Caminho_156" data-name="Caminho 156" d="M371.5,648a1.769,1.769,0,0,0-.735.148,1.559,1.559,0,0,0-.55.549v-.581h-.877v4.429h.886v-2.437a1.5,1.5,0,0,1,.079-.5,1.088,1.088,0,0,1,.217-.374.9.9,0,0,1,.333-.231,1.12,1.12,0,0,1,.425-.079,1.887,1.887,0,0,1,.379.042,1.579,1.579,0,0,1,.194.052l.286-.924a1.757,1.757,0,0,0-.237-.059A2.393,2.393,0,0,0,371.5,648Z" transform="translate(-328.294 -646.315)" fill="#161615"/>
          <path id="Caminho_157" data-name="Caminho 157" d="M387.28,640.131v2.336a1.729,1.729,0,0,0-.573-.474,1.753,1.753,0,0,0-.818-.178,2.161,2.161,0,0,0-1.572.657,2.234,2.234,0,0,0-.471.737,2.648,2.648,0,0,0,0,1.872,2.242,2.242,0,0,0,.471.738,2.162,2.162,0,0,0,1.572.657,1.773,1.773,0,0,0,.818-.176,1.705,1.705,0,0,0,.573-.471v.532h.966v-6.229Zm-.037,4.578a1.341,1.341,0,0,1-.273.448,1.27,1.27,0,0,1-.421.3,1.44,1.44,0,0,1-1.107,0,1.254,1.254,0,0,1-.419-.305,1.353,1.353,0,0,1-.263-.451,1.683,1.683,0,0,1,0-1.1,1.348,1.348,0,0,1,.263-.451,1.247,1.247,0,0,1,.419-.305,1.434,1.434,0,0,1,1.107,0,1.26,1.26,0,0,1,.421.3,1.339,1.339,0,0,1,.273.448,1.684,1.684,0,0,1,0,1.128Z" transform="translate(-339.562 -640.131)" fill="#161615"/>
          <path id="Caminho_158" data-name="Caminho 158" d="M322.392,649.305a1.3,1.3,0,0,1,.439-.291,1.443,1.443,0,0,1,.55-.1h0a1.729,1.729,0,0,1,.605.1,1.459,1.459,0,0,1,.469.28l.465-.773a2.37,2.37,0,0,0-.589-.343,2.622,2.622,0,0,0-1.9,0,2.289,2.289,0,0,0-.754.49,2.263,2.263,0,0,0-.5.737,2.459,2.459,0,0,0,0,1.849,2.266,2.266,0,0,0,.5.737,2.291,2.291,0,0,0,.754.49,2.626,2.626,0,0,0,1.9,0,2.369,2.369,0,0,0,.589-.343l-.465-.774a1.449,1.449,0,0,1-.469.279,1.722,1.722,0,0,1-.605.1h0a1.437,1.437,0,0,1-.55-.1,1.3,1.3,0,0,1-.439-.291,1.356,1.356,0,0,1-.291-.448,1.611,1.611,0,0,1,0-1.151A1.361,1.361,0,0,1,322.392,649.305Z" transform="translate(-290.305 -646.315)" fill="#161615"/>
        </g>
        <g id="Grupo_206" data-name="Grupo 206" transform="translate(52.986 41.173)">
          <path id="Caminho_159" data-name="Caminho 159" d="M412.826,666.2a.463.463,0,0,1,.181.036.47.47,0,0,1,.147.1.456.456,0,0,1,.1.144.441.441,0,0,1,0,.35.465.465,0,0,1-.427.278.469.469,0,0,1-.184-.036.454.454,0,0,1-.247-.242.45.45,0,0,1,0-.35.455.455,0,0,1,.1-.144.466.466,0,0,1,.148-.1A.476.476,0,0,1,412.826,666.2Zm0,.778a.312.312,0,0,0,.127-.026.322.322,0,0,0,.1-.07.332.332,0,0,0,.069-.359.321.321,0,0,0-.069-.1.326.326,0,0,0-.1-.069.312.312,0,0,0-.127-.026.322.322,0,0,0-.129.026.332.332,0,0,0-.1.069.316.316,0,0,0-.069.1.337.337,0,0,0,0,.255.321.321,0,0,0,.069.1.328.328,0,0,0,.1.07A.323.323,0,0,0,412.826,666.973Zm.026-.527a.187.187,0,0,1,.125.037.122.122,0,0,1,.043.1.109.109,0,0,1-.031.08.154.154,0,0,1-.089.042l.125.144h-.135l-.112-.14h-.013v.14h-.113v-.4Zm-.086.1v.073h.085a.085.085,0,0,0,.04-.008.03.03,0,0,0,.014-.028.031.031,0,0,0-.014-.028.071.071,0,0,0-.04-.009Z" transform="translate(-412.359 -666.195)" fill="#161615"/>
        </g>
        <g id="Grupo_207" data-name="Grupo 207">
          <path id="Caminho_160" data-name="Caminho 160" d="M185.568,490.566a16.657,16.657,0,0,1,6.338-13.087,16.691,16.691,0,1,0,0,26.174A16.657,16.657,0,0,1,185.568,490.566Z" transform="translate(-164.862 -473.875)" fill="#d90010"/>
          <ellipse id="Elipse_3" data-name="Elipse 3" cx="6.338" cy="13.087" rx="6.338" ry="13.087" transform="translate(20.706 3.604)" fill="#e54800"/>
          <path id="Caminho_161" data-name="Caminho 161" d="M411.5,591.723v-.488h-.2V591.1h.541v.135h-.2v.488Zm1.046,0v-.432l-.14.373h-.155l-.14-.372v.431h-.146V591.1h.209l.155.4.154-.4h.209v.623Z" transform="translate(-358.541 -566.004)" fill="#f78b00"/>
          <path id="Caminho_162" data-name="Caminho 162" d="M301.538,473.875a16.616,16.616,0,0,0-10.353,3.6,16.68,16.68,0,0,1,0,26.174,16.689,16.689,0,1,0,10.353-29.778Z" transform="translate(-264.141 -473.875)" fill="#f78b00"/>
        </g>
      </g>
    </g>
    <g id="Grupo_216" data-name="Grupo 216" transform="translate(79.158 9.321)">
      <path id="Caminho_163" data-name="Caminho 163" d="M453.979,43.83H448.5c-.2-.963-.416-1.906-.586-2.857-.07-.394-.2-.548-.637-.542-2.2.028-4.395.021-6.592,0a.5.5,0,0,0-.566.41c-.3.906-.634,1.8-.973,2.7-.046.121-.2.288-.3.288-1.981.017-3.962.013-6,.013.372-.894.723-1.748,1.08-2.6q3.831-9.14,7.663-18.279a2.7,2.7,0,0,1,2.81-1.872h4.811c.159.743.319,1.475.472,2.208q1.885,9.032,3.77,18.064c.161.771.352,1.536.529,2.3Zm-7.172-8.08-1.736-8.324-.07-.014-3.023,8.338Z" transform="translate(-381.189 -20.687)" fill="url(#linear-gradient)"/>
      <path id="Caminho_164" data-name="Caminho 164" d="M323.915,18.077c.723.134,1.452.245,2.168.41.653.151,1.293.361,1.988.559l-1.026,4.8c-.916-.269-1.792-.578-2.692-.777a7.635,7.635,0,0,0-3.724-.032,3.776,3.776,0,0,0-1.4.745,1.278,1.278,0,0,0-.039,2.021,8.738,8.738,0,0,0,1.5,1.081c1.2.721,2.458,1.348,3.623,2.118a5.366,5.366,0,0,1,2.583,3.84,6.846,6.846,0,0,1-3.236,6.993,11.094,11.094,0,0,1-5.215,1.685,18.635,18.635,0,0,1-7.613-.863c-.166-.055-.328-.123-.49-.189a1.366,1.366,0,0,1-.164-.1l1.061-4.969c.422.184.819.369,1.224.533a10.608,10.608,0,0,0,6.007.749,4.27,4.27,0,0,0,1.546-.645,1.637,1.637,0,0,0,.184-2.695,14.467,14.467,0,0,0-1.983-1.3c-1.056-.643-2.178-1.192-3.177-1.911a5.328,5.328,0,0,1-2.385-3.789,6.479,6.479,0,0,1,2.525-5.982,10.614,10.614,0,0,1,5.646-2.192,2.978,2.978,0,0,0,.34-.081Z" transform="translate(-274.997 -18.077)" fill="url(#linear-gradient-2)"/>
      <path id="Caminho_165" data-name="Caminho 165" d="M75.878,21.064c-.308.741-.6,1.447-.895,2.151Q70.753,33.307,66.531,43.4a.558.558,0,0,1-.623.4c-1.78-.015-3.56-.021-5.34,0-.377.005-.5-.127-.587-.466-1.509-5.88-3.043-11.754-4.535-17.639A3.1,3.1,0,0,0,53.6,23.433a29.444,29.444,0,0,0-5.1-1.649l-.226-.057c.009-.682.009-.682.658-.682h9.345A2.71,2.71,0,0,1,61.1,23.367q1.186,6.21,2.346,12.425c.034.181.073.361.125.616.081-.152.137-.237.174-.33q2.9-7.34,5.795-14.684a.47.47,0,0,1,.523-.356c1.807.014,3.614.007,5.421.008C75.6,21.046,75.713,21.056,75.878,21.064Z" transform="translate(-48.269 -20.64)" fill="url(#linear-gradient-3)"/>
      <path id="Caminho_166" data-name="Caminho 166" d="M236.258,44l4.863-22.727h5.9c-.246,1.153-.486,2.284-.728,3.415q-2.006,9.379-4,18.761c-.092.435-.246.573-.7.564-1.618-.031-3.236-.012-4.854-.012Z" transform="translate(-211.008 -20.844)" fill="url(#linear-gradient-4)"/>
    </g>
    <g id="Grupo_215" data-name="Grupo 215" transform="translate(0 7.545)">
      <path id="Caminho_167" data-name="Caminho 167" d="M176.858,300.969h2.9v27.119h-2.9V300.969Z" transform="translate(-172.676 -300.969)" fill-rule="evenodd"/>
      <path id="Caminho_168" data-name="Caminho 168" d="M184.015,300.969h.9v27.119h-.9V300.969Z" transform="translate(-176.025 -300.969)" fill-rule="evenodd"/>
      <path id="Caminho_169" data-name="Caminho 169" d="M187.172,300.969h1.607v27.119h-1.607V300.969Z" transform="translate(-177.501 -300.969)" fill-rule="evenodd"/>
      <path id="Caminho_170" data-name="Caminho 170" d="M193.1,300.969h.9v27.119h-.9V300.969Z" transform="translate(-180.275 -300.969)" fill-rule="evenodd"/>
      <path id="Caminho_171" data-name="Caminho 171" d="M195.521,300.969h.692v27.119h-.692V300.969Z" transform="translate(-181.407 -300.969)" fill-rule="evenodd"/>
      <path id="Caminho_172" data-name="Caminho 172" d="M172.719,300.969h.9v27.119h-.9V300.969Z" transform="translate(-170.74 -300.969)" fill-rule="evenodd"/>
      <path id="Caminho_173" data-name="Caminho 173" d="M169,300.969h1.607v27.119H169V300.969Z" transform="translate(-169 -300.969)" fill-rule="evenodd"/>
      <path id="Caminho_174" data-name="Caminho 174" d="M205.835,300.969h2.9v27.119h-2.9V300.969Z" transform="translate(-186.232 -300.969)" fill-rule="evenodd"/>
      <path id="Caminho_175" data-name="Caminho 175" d="M212.992,300.969h.9v27.119h-.9V300.969Z" transform="translate(-189.581 -300.969)" fill-rule="evenodd"/>
      <path id="Caminho_176" data-name="Caminho 176" d="M216.148,300.969h1.607v27.119h-1.607V300.969Z" transform="translate(-191.057 -300.969)" fill-rule="evenodd"/>
      <path id="Caminho_177" data-name="Caminho 177" d="M222.078,300.969h.9v27.119h-.9V300.969Z" transform="translate(-193.831 -300.969)" fill-rule="evenodd"/>
      <path id="Caminho_178" data-name="Caminho 178" d="M224.5,300.969h.692v27.119H224.5V300.969Z" transform="translate(-194.963 -300.969)" fill-rule="evenodd"/>
      <path id="Caminho_179" data-name="Caminho 179" d="M201.7,300.969h.9v27.119h-.9V300.969Z" transform="translate(-184.296 -300.969)" fill-rule="evenodd"/>
      <path id="Caminho_180" data-name="Caminho 180" d="M197.977,300.969h1.607v27.119h-1.607V300.969Z" transform="translate(-182.556 -300.969)" fill-rule="evenodd"/>
      <path id="Caminho_181" data-name="Caminho 181" d="M227.936,300.969h1.607v27.119h-1.607V300.969Z" transform="translate(-196.572 -300.969)" fill-rule="evenodd"/>
      <path id="Caminho_182" data-name="Caminho 182" d="M233.865,300.969h.9v27.119h-.9V300.969Z" transform="translate(-199.346 -300.969)" fill-rule="evenodd"/>
      <path id="Caminho_183" data-name="Caminho 183" d="M236.285,300.969h.692v27.119h-.692V300.969Z" transform="translate(-200.478 -300.969)" fill-rule="evenodd"/>
      <path id="Caminho_184" data-name="Caminho 184" d="M242.46,300.969h.9v27.119h-.9V300.969Z" transform="translate(-203.367 -300.969)" fill-rule="evenodd"/>
      <path id="Caminho_185" data-name="Caminho 185" d="M238.741,300.969h1.607v27.119h-1.607V300.969Z" transform="translate(-201.627 -300.969)" fill-rule="evenodd"/>
      <path id="Caminho_186" data-name="Caminho 186" d="M246.388,300.969h.9v27.119h-.9V300.969Z" transform="translate(-205.204 -300.969)" fill-rule="evenodd"/>
      <path id="Caminho_187" data-name="Caminho 187" d="M248.809,300.969h.692v27.119h-.692V300.969Z" transform="translate(-206.337 -300.969)" fill-rule="evenodd"/>
      <path id="Caminho_188" data-name="Caminho 188" d="M254.983,300.969h.9v27.119h-.9V300.969Z" transform="translate(-209.225 -300.969)" fill-rule="evenodd"/>
      <path id="Caminho_189" data-name="Caminho 189" d="M251.264,300.969h1.607v27.119h-1.607V300.969Z" transform="translate(-207.485 -300.969)" fill-rule="evenodd"/>
      <path id="Caminho_190" data-name="Caminho 190" d="M258.14,300.969h2.9v27.119h-2.9V300.969Z" transform="translate(-210.702 -300.969)" fill-rule="evenodd"/>
      <path id="Caminho_191" data-name="Caminho 191" d="M265.3,300.969h.9v27.119h-.9V300.969Z" transform="translate(-214.05 -300.969)" fill-rule="evenodd"/>
      <path id="Caminho_192" data-name="Caminho 192" d="M268.454,300.969h1.607v27.119h-1.607V300.969Z" transform="translate(-215.527 -300.969)" fill-rule="evenodd"/>
      <path id="Caminho_193" data-name="Caminho 193" d="M274.383,300.969h.9v27.119h-.9V300.969Z" transform="translate(-218.301 -300.969)" fill-rule="evenodd"/>
      <path id="Caminho_194" data-name="Caminho 194" d="M276.8,300.969h.692v27.119H276.8V300.969Z" transform="translate(-219.433 -300.969)" fill-rule="evenodd"/>
      <path id="Caminho_195" data-name="Caminho 195" d="M280.241,300.969h1.607v27.119h-1.607V300.969Z" transform="translate(-221.042 -300.969)" fill-rule="evenodd"/>
    </g>
    <g id="Grupo_218" data-name="Grupo 218" transform="translate(243.258 7.545)">
      <path id="Caminho_86" data-name="Caminho 86" d="M188.285,349.913a11.145,11.145,0,0,1,10.831,8.524l-4.491,1.964v-.009l-4.594,2.018-11.021,4.819a11.142,11.142,0,0,1,9.275-17.316Zm4.782,6.928-11.13,4.8c-.017-.192-.027-.386-.027-.582a6.374,6.374,0,0,1,11.156-4.214Z" transform="translate(-177.144 -345.197)" fill-rule="evenodd"/>
      <path id="Caminho_87" data-name="Caminho 87" d="M215.2,428.835a11.049,11.049,0,0,1-13.9,1.343l2.62-3.983q3.958,2.366,7.952-.769l3.331,3.41Z" transform="translate(-196.278 -405.008)" fill-rule="evenodd"/>
      <path id="Caminho_88" data-name="Caminho 88" d="M289.877,348.3l-.028-21.069h3.992v20.5a.419.419,0,0,0,.282.47l3.472,1.35-1.565,4.068-4.068-1.721c-1.542-.653-2.083-1.6-2.086-3.6Z" transform="translate(-266.414 -327.234)" fill-rule="evenodd"/>
      <path id="Caminho_89" data-name="Caminho 89" d="M334.416,374.251a6.353,6.353,0,0,1-.477-9.631l-2.578-4.179a11.206,11.206,0,0,0,.621,18.038Z" transform="translate(-295.923 -353.536)" fill="#009dd7" fill-rule="evenodd"/>
      <path id="Caminho_90" data-name="Caminho 90" d="M362.815,354.022a6.363,6.363,0,0,1,8.1,3.743l4.94-.413a11.21,11.21,0,0,0-15.1-7.734Z" transform="translate(-322.575 -344.313)" fill="#fff200" fill-rule="evenodd"/>
      <path id="Caminho_91" data-name="Caminho 91" d="M374.088,404.191a6.36,6.36,0,0,1-7.9,5.859l-1.938,4.487a11.209,11.209,0,0,0,14.685-10.194Z" transform="translate(-325.346 -388.189)" fill="#e33206" fill-rule="evenodd"/>
    </g>
  </g>
</svg>
