<svg xmlns="http://www.w3.org/2000/svg" width="62.612" height="41.741" viewBox="0 0 62.612 41.741">
  <g id="credit-card_1_" data-name="credit-card (1)" opacity="0.45">
    <g id="Grupo_51" data-name="Grupo 51" transform="translate(0 0)">
      <g id="Grupo_50" data-name="Grupo 50">
        <path id="Caminho_22" data-name="Caminho 22" d="M56.09,85.333H6.522A6.531,6.531,0,0,0,0,91.855v28.7a6.531,6.531,0,0,0,6.522,6.522H56.089a6.531,6.531,0,0,0,6.522-6.522v-28.7A6.531,6.531,0,0,0,56.09,85.333ZM60,120.552a3.918,3.918,0,0,1-3.913,3.913H6.522a3.918,3.918,0,0,1-3.913-3.913v-28.7a3.918,3.918,0,0,1,3.913-3.913H56.089A3.918,3.918,0,0,1,60,91.855v28.7Z" transform="translate(0 -85.333)" fill="#949494"/>
      </g>
    </g>
    <g id="Grupo_53" data-name="Grupo 53" transform="translate(0 7.826)">
      <g id="Grupo_52" data-name="Grupo 52">
        <path id="Caminho_23" data-name="Caminho 23" d="M61.307,149.333H1.3a1.3,1.3,0,0,0-1.3,1.3v7.826a1.3,1.3,0,0,0,1.3,1.3h60a1.3,1.3,0,0,0,1.3-1.3v-7.826A1.305,1.305,0,0,0,61.307,149.333ZM60,157.159H2.609v-5.218H60v5.218Z" transform="translate(0 -149.333)" fill="#949494"/>
      </g>
    </g>
    <g id="Grupo_55" data-name="Grupo 55" transform="translate(7.826 26.088)">
      <g id="Grupo_54" data-name="Grupo 54">
        <path id="Caminho_24" data-name="Caminho 24" d="M80.957,298.667H65.3a1.3,1.3,0,1,0,0,2.609H80.957a1.3,1.3,0,1,0,0-2.609Z" transform="translate(-64 -298.667)" fill="#949494"/>
      </g>
    </g>
    <g id="Grupo_57" data-name="Grupo 57" transform="translate(7.826 31.306)">
      <g id="Grupo_56" data-name="Grupo 56">
        <path id="Caminho_25" data-name="Caminho 25" d="M80.957,341.333H65.3a1.3,1.3,0,1,0,0,2.609H80.957a1.3,1.3,0,1,0,0-2.609Z" transform="translate(-64 -341.333)" fill="#949494"/>
      </g>
    </g>
    <g id="Grupo_59" data-name="Grupo 59" transform="translate(44.35 23.479)">
      <g id="Grupo_58" data-name="Grupo 58">
        <path id="Caminho_26" data-name="Caminho 26" d="M369.189,277.333H366.58a3.918,3.918,0,0,0-3.913,3.913v2.609a3.918,3.918,0,0,0,3.913,3.913h2.609a3.918,3.918,0,0,0,3.913-3.913v-2.609A3.918,3.918,0,0,0,369.189,277.333Zm1.3,6.522a1.3,1.3,0,0,1-1.3,1.3H366.58a1.3,1.3,0,0,1-1.3-1.3v-2.609a1.3,1.3,0,0,1,1.3-1.3h2.609a1.3,1.3,0,0,1,1.3,1.3Z" transform="translate(-362.667 -277.333)" fill="#949494"/>
      </g>
    </g>
  </g>
</svg>
