<svg xmlns="http://www.w3.org/2000/svg" width="66.125" height="43.51" viewBox="0 0 66.125 43.51">
  <path id="delivery-truck" d="M65.1,118.5c-.254-1.3-2.5-12.7-3.053-14.368-1.333-4-4.536-8.563-8.567-12.194C49.285,88.161,44.942,86,41.561,86H8.677a3.094,3.094,0,0,0-3.091,3.091v4.857H3.309a1.512,1.512,0,1,0,0,3.024H5.586v3.607H1.512a1.512,1.512,0,0,0,0,3.024H5.586v15.191a3.094,3.094,0,0,0,3.091,3.091h3.77a7.791,7.791,0,0,0,15.407,0H41.722a7.791,7.791,0,0,0,15.407,0h4.9a3.094,3.094,0,0,0,3.091-3.091A1.523,1.523,0,0,0,65.1,118.5ZM59,104.6H43.42V89.29C48.94,90.773,56.59,98.117,59,104.6ZM20.15,125.483a4.767,4.767,0,1,1,4.767-4.767A4.772,4.772,0,0,1,20.15,125.483Zm29.276,0a4.767,4.767,0,1,1,4.767-4.767A4.772,4.772,0,0,1,49.426,125.483Zm12.533-6.627H56.99a7.79,7.79,0,0,0-15.129,0H27.714a7.79,7.79,0,0,0-15.129,0H8.677a.067.067,0,0,1-.067-.067V103.6H27.14a1.512,1.512,0,1,0,0-3.024H8.61V96.968h8.529a1.512,1.512,0,1,0,0-3.024H8.61V89.087a.067.067,0,0,1,.067-.067H40.4v17.09a1.512,1.512,0,0,0,1.512,1.512H59.784c.645,2.94,1.529,7.652,2.282,11.141C62.081,118.833,62.037,118.856,61.959,118.856Z" transform="translate(0.5 -85.496)" fill="#949494" stroke="#fff" stroke-width="1" opacity="0.45"/>
</svg>
