<svg xmlns="http://www.w3.org/2000/svg" width="55.433" height="53.19" viewBox="0 0 55.433 53.19">
  <g id="discount" opacity="0.45">
    <path id="Caminho_27" data-name="Caminho 27" d="M180.615,163.288a1.205,1.205,0,0,0-1.7,0L163.289,178.91a1.205,1.205,0,0,0,1.7,1.7l15.621-15.621A1.205,1.205,0,0,0,180.615,163.288Z" transform="translate(-144.235 -145.356)" fill="#949494"/>
    <path id="Caminho_28" data-name="Caminho 28" d="M156.642,161.213a4.573,4.573,0,1,0-4.573-4.573A4.578,4.578,0,0,0,156.642,161.213Zm0-6.735a2.162,2.162,0,1,1-2.162,2.162A2.165,2.165,0,0,1,156.642,154.478Z" transform="translate(-134.616 -135.736)" fill="#949494"/>
    <path id="Caminho_29" data-name="Caminho 29" d="M255.8,251.229a4.573,4.573,0,1,0,4.573,4.572A4.578,4.578,0,0,0,255.8,251.229Zm0,6.735a2.162,2.162,0,1,1,2.162-2.163A2.165,2.165,0,0,1,255.8,257.964Z" transform="translate(-222.394 -223.516)" fill="#949494"/>
    <path id="Caminho_30" data-name="Caminho 30" d="M53.093,31.284a10.164,10.164,0,0,1-1.63-2.632,10.63,10.63,0,0,1-.257-3.227c.026-1.875.052-3.814-1.066-5.351-1.13-1.553-2.992-2.126-4.793-2.681a10.476,10.476,0,0,1-2.958-1.222,10.355,10.355,0,0,1-2.041-2.407C39.311,12.282,38.135,10.6,36.283,10a4.872,4.872,0,0,0-1.507-.228,12.269,12.269,0,0,0-3.847.868,10.766,10.766,0,0,1-3.213.765,10.766,10.766,0,0,1-3.213-.765,12.268,12.268,0,0,0-3.847-.868A4.873,4.873,0,0,0,19.15,10c-1.852.6-3.028,2.281-4.065,3.763a10.354,10.354,0,0,1-2.041,2.407,10.476,10.476,0,0,1-2.958,1.222c-1.8.555-3.663,1.128-4.793,2.681C4.174,21.611,4.2,23.55,4.226,25.425a10.63,10.63,0,0,1-.257,3.227,10.165,10.165,0,0,1-1.63,2.632C1.243,32.738,0,34.385,0,36.368S1.243,40,2.34,41.452a10.157,10.157,0,0,1,1.63,2.632,10.626,10.626,0,0,1,.257,3.227c-.026,1.875-.052,3.814,1.066,5.351,1.13,1.553,2.992,2.126,4.793,2.681a10.474,10.474,0,0,1,2.958,1.222,10.355,10.355,0,0,1,2.041,2.407c1.037,1.482,2.213,3.161,4.065,3.763a4.871,4.871,0,0,0,1.507.228,12.272,12.272,0,0,0,3.847-.868,10.767,10.767,0,0,1,3.213-.765,10.766,10.766,0,0,1,3.213.765,12.268,12.268,0,0,0,3.847.868,4.872,4.872,0,0,0,1.507-.228c1.852-.6,3.028-2.281,4.065-3.763a10.357,10.357,0,0,1,2.041-2.407,10.478,10.478,0,0,1,2.958-1.222c1.8-.555,3.663-1.128,4.793-2.681,1.119-1.537,1.092-3.476,1.066-5.351a10.636,10.636,0,0,1,.257-3.227,10.171,10.171,0,0,1,1.63-2.632c1.1-1.453,2.34-3.1,2.34-5.084S54.19,32.737,53.093,31.284ZM51.169,40a11.95,11.95,0,0,0-2,3.34,12.461,12.461,0,0,0-.374,4c.021,1.549.041,3.012-.605,3.9-.658.9-2.064,1.337-3.554,1.8a12.29,12.29,0,0,0-3.666,1.576,12.16,12.16,0,0,0-2.6,2.974c-.9,1.286-1.75,2.5-2.835,2.853a2.44,2.44,0,0,1-.762.11,10.468,10.468,0,0,1-3.07-.74,12.617,12.617,0,0,0-3.99-.893,12.617,12.617,0,0,0-3.99.893,10.47,10.47,0,0,1-3.07.74,2.438,2.438,0,0,1-.762-.11c-1.085-.352-1.935-1.567-2.835-2.853a12.159,12.159,0,0,0-2.6-2.974A12.288,12.288,0,0,0,10.8,53.039c-1.489-.459-2.9-.892-3.554-1.8-.646-.888-.626-2.351-.605-3.9a12.458,12.458,0,0,0-.374-4,11.954,11.954,0,0,0-2-3.34c-.953-1.263-1.854-2.457-1.854-3.632s.9-2.369,1.854-3.632a11.952,11.952,0,0,0,2-3.34,12.463,12.463,0,0,0,.374-4c-.021-1.549-.041-3.011.605-3.9.658-.9,2.064-1.337,3.554-1.8a12.294,12.294,0,0,0,3.666-1.576,12.159,12.159,0,0,0,2.6-2.974c.9-1.286,1.75-2.5,2.835-2.853a2.441,2.441,0,0,1,.762-.11,10.469,10.469,0,0,1,3.07.74,12.613,12.613,0,0,0,3.99.893,12.618,12.618,0,0,0,3.99-.893,10.468,10.468,0,0,1,3.07-.74,2.438,2.438,0,0,1,.762.11c1.085.352,1.935,1.567,2.835,2.853a12.16,12.16,0,0,0,2.6,2.974A12.29,12.29,0,0,0,44.638,19.7c1.489.459,2.9.892,3.554,1.8.647.888.626,2.351.605,3.9a12.462,12.462,0,0,0,.374,4,11.956,11.956,0,0,0,2,3.339c.953,1.263,1.854,2.456,1.854,3.632S52.122,38.737,51.169,40Z" transform="translate(0 -9.773)" fill="#949494"/>
    <path id="Caminho_31" data-name="Caminho 31" d="M91.967,73.9a8.1,8.1,0,0,1-.186-2.422,6.962,6.962,0,0,0-.88-4.321,6.994,6.994,0,0,0-3.864-2.182,7.984,7.984,0,0,1-2.22-.91,7.9,7.9,0,0,1-1.525-1.808A7,7,0,0,0,80,59.23a4.052,4.052,0,0,0-1.254-.191,9.738,9.738,0,0,0-3.076.689,8.2,8.2,0,0,1-2.411.58,8.2,8.2,0,0,1-2.411-.58,9.736,9.736,0,0,0-3.076-.689,4.054,4.054,0,0,0-1.254.191,7,7,0,0,0-3.3,3.026,7.893,7.893,0,0,1-1.525,1.808,7.983,7.983,0,0,1-2.22.91,6.994,6.994,0,0,0-3.864,2.182,6.962,6.962,0,0,0-.88,4.321A8.1,8.1,0,0,1,54.54,73.9a7.749,7.749,0,0,1-1.226,1.967,7.044,7.044,0,0,0-1.873,4.113,7.044,7.044,0,0,0,1.873,4.113A7.74,7.74,0,0,1,54.54,86.06a8.1,8.1,0,0,1,.186,2.422,6.962,6.962,0,0,0,.88,4.321,6.993,6.993,0,0,0,3.864,2.182,7.983,7.983,0,0,1,2.22.91A7.892,7.892,0,0,1,63.215,97.7a7,7,0,0,0,3.3,3.026,4.051,4.051,0,0,0,1.254.191,9.734,9.734,0,0,0,3.076-.689,8.2,8.2,0,0,1,2.411-.58,8.2,8.2,0,0,1,2.411.58,9.734,9.734,0,0,0,3.077.689A4.055,4.055,0,0,0,80,100.729a7,7,0,0,0,3.3-3.026A7.893,7.893,0,0,1,84.817,95.9a7.979,7.979,0,0,1,2.22-.91A6.992,6.992,0,0,0,90.9,92.8a6.961,6.961,0,0,0,.88-4.321,8.108,8.108,0,0,1,.186-2.422,7.746,7.746,0,0,1,1.226-1.967,7.044,7.044,0,0,0,1.873-4.113,7.044,7.044,0,0,0-1.873-4.113A7.748,7.748,0,0,1,91.967,73.9Zm-.7,8.742a9.487,9.487,0,0,0-1.594,2.674,9.889,9.889,0,0,0-.3,3.2,5.229,5.229,0,0,1-.419,2.87,5.246,5.246,0,0,1-2.624,1.3A9.754,9.754,0,0,0,83.4,93.946a9.646,9.646,0,0,0-2.081,2.375c-.673.962-1.309,1.87-2.067,2.116a1.634,1.634,0,0,1-.51.073,7.979,7.979,0,0,1-2.3-.561,10.006,10.006,0,0,0-3.187-.709,10.008,10.008,0,0,0-3.187.709,7.978,7.978,0,0,1-2.3.561,1.635,1.635,0,0,1-.51-.073c-.758-.246-1.393-1.154-2.067-2.116a9.647,9.647,0,0,0-2.081-2.375,9.748,9.748,0,0,0-2.929-1.265,5.248,5.248,0,0,1-2.624-1.3,5.232,5.232,0,0,1-.419-2.87,9.884,9.884,0,0,0-.3-3.2,9.49,9.49,0,0,0-1.594-2.674,5.257,5.257,0,0,1-1.387-2.661,5.256,5.256,0,0,1,1.387-2.661,9.485,9.485,0,0,0,1.594-2.675,9.887,9.887,0,0,0,.3-3.2,5.232,5.232,0,0,1,.419-2.87,5.248,5.248,0,0,1,2.624-1.3,9.752,9.752,0,0,0,2.929-1.265,9.649,9.649,0,0,0,2.081-2.375c.673-.962,1.309-1.87,2.067-2.116a1.631,1.631,0,0,1,.51-.073,7.982,7.982,0,0,1,2.3.561,10.006,10.006,0,0,0,3.187.709,10.006,10.006,0,0,0,3.187-.709,7.982,7.982,0,0,1,2.3-.561,1.631,1.631,0,0,1,.51.073c.758.246,1.393,1.154,2.067,2.116A9.645,9.645,0,0,0,83.4,66.013a9.748,9.748,0,0,0,2.929,1.265,5.249,5.249,0,0,1,2.624,1.3,5.233,5.233,0,0,1,.419,2.87,9.883,9.883,0,0,0,.3,3.2,9.489,9.489,0,0,0,1.594,2.674,5.256,5.256,0,0,1,1.387,2.662A5.258,5.258,0,0,1,91.269,82.641Z" transform="translate(-45.537 -53.385)" fill="#949494"/>
  </g>
</svg>
