<svg xmlns="http://www.w3.org/2000/svg" width="194.039" height="151.505" viewBox="0 0 194.039 151.505">
  <g id="Grupo_6919" data-name="Grupo 6919" transform="translate(-314.5 -12.5)">
    <path id="Uni達o_2" data-name="Uni達o 2" d="M0,44C.021,19.779,19.589-.165,43.958,0,68,.163,87.307,19.925,87.325,44.063a43.922,43.922,0,0,1-43.7,44.094C19.545,88.156-.021,68.366,0,44ZM43.65,3.583a40.5,40.5,0,0,0,0,80.994,40.355,40.355,0,0,0,40.127-40.5c.019-22.3-17.991-40.5-40.067-40.5ZM27.661,62.493A18.274,18.274,0,0,1,9.552,46.215a18.425,18.425,0,0,1,13.194-19.9,15.537,15.537,0,0,1,5.9-.64,11.95,11.95,0,0,1,10.628,8.163,12.369,12.369,0,0,1-8.059,16.154,11.952,11.952,0,0,1-11.1-2.109c-.17-.13-.324-.282-.468-.41l2.724-2.7c.1.073.282.2.458.321a8.419,8.419,0,0,0,9.442.214,8.594,8.594,0,0,0-2.7-15.59,10.262,10.262,0,0,0-4.614.064c-5.889,1.343-9.741,4.953-11.256,10.851A14.5,14.5,0,0,0,24.769,58.349a15.189,15.189,0,0,0,2.959.289q8.2.014,16.4.008,7.729,0,15.459.008a14.585,14.585,0,0,0,2.44-28.946,10.627,10.627,0,0,0-4.785.132A8.591,8.591,0,0,0,58.085,46.5a8.311,8.311,0,0,0,6.557-1.511c.126-.092.257-.177.372-.256l2.671,2.721c-.127.117-.272.267-.434.4A12.341,12.341,0,0,1,47.389,36.565a12.236,12.236,0,0,1,10.7-10.822,17.114,17.114,0,0,1,12.389,3.51,17.854,17.854,0,0,1,7.272,12.587A18.491,18.491,0,0,1,62.786,62.312a13,13,0,0,1-2.255.191q-10.142.023-20.284.011c-1.243,0-2.487,0-3.73.007q-1.785.005-3.572.007C31.184,62.528,29.423,62.52,27.661,62.493Z" transform="translate(367.838 13)" fill="#fff" stroke="rgba(0,0,0,0)" stroke-miterlimit="10" stroke-width="1"/>
    <path id="Uni達o_3" data-name="Uni達o 3" d="M119.2,35.941a3.433,3.433,0,0,1-1.691-1.713,5.322,5.322,0,0,1-.619-2.12,2.215,2.215,0,0,0-.176-.52l-.314.616a7,7,0,0,1-4.895,3.969,9.411,9.411,0,0,1-4.6-.082,5.5,5.5,0,0,1-4.076-5.023,5.575,5.575,0,0,1,2.717-5.729,12.529,12.529,0,0,1,4.5-1.686,25.935,25.935,0,0,1,4.434-.531c.669-.012,1.335-.143,2.036-.223.014-.215.036-.39.037-.566q0-2.589,0-5.178a10.312,10.312,0,0,0-.59-3.239,3.408,3.408,0,0,0-5.343-1.54,4.682,4.682,0,0,0-1.43,1.966,8.2,8.2,0,0,0-.642,3.223,6.573,6.573,0,0,1-.131,1.061,2.288,2.288,0,0,1-1.385.03,4.9,4.9,0,0,1-1.06-.387,2.935,2.935,0,0,1-1.513-3.772,3.966,3.966,0,0,1,1.61-2.031,10.821,10.821,0,0,1,4.258-1.632,15.092,15.092,0,0,1,4.87-.036,6.74,6.74,0,0,1,5.761,5.774,21.478,21.478,0,0,1,.345,3.952c.008,4.114,0,8.229.008,12.344a2.981,2.981,0,0,0,.131.817,1.579,1.579,0,0,0,2.672.458c.244-.313.441-.664.682-.981.084-.112.247-.256.353-.24a.386.386,0,0,1,.3.453,1.76,1.76,0,0,1-.109.466,3.418,3.418,0,0,1-1.611,1.941,5.264,5.264,0,0,1-2.454.65A4.776,4.776,0,0,1,119.2,35.941Zm-3.018-11.9q-1.328.173-2.655.354a10.556,10.556,0,0,0-3.493,1.14,3.538,3.538,0,0,0-1.576,1.509,5.906,5.906,0,0,0,.121,5.961,2.425,2.425,0,0,0,1.456,1.174,4.193,4.193,0,0,0,3.235-.3,6.014,6.014,0,0,0,3.147-4.561,27.911,27.911,0,0,0,.114-5.161c0-.034-.036-.068-.062-.114-.059,0-.121,0-.183,0A.838.838,0,0,0,116.179,24.042Zm19.376,12.189a6.547,6.547,0,0,1-5.274-5.388A13.89,13.89,0,0,1,130,28.034q.014-7.376,0-14.751V12.5h-3.039v-1a2.577,2.577,0,0,1,.993-.086c.156.006.312.013.466.007.474-.019.948,0,1.5,0,.029-1.864,0-3.681.018-5.565l4.72-1.551c.032.4.08.73.08,1.059,0,1.766-.006,3.531-.01,5.3,0,.216,0,.431,0,.727h8.251v1.1c-1.384.046-2.765.04-4.153.034-1.338,0-2.684-.011-4.039.031-.021.327-.056.62-.056.913q0,7.827.011,15.653a10.559,10.559,0,0,0,.533,3.312,3.328,3.328,0,0,0,1.874,2.212,2.611,2.611,0,0,0,.679.193,6.031,6.031,0,0,0,4.376-1.212c.29-.21.571-.434.888-.675l.74.65c-.13.143-.224.268-.337.372a8.663,8.663,0,0,1-6.032,2.453A10.2,10.2,0,0,1,135.555,36.231Zm-88.477-1.6A14.9,14.9,0,0,1,40.3,26.674a20.881,20.881,0,0,1-1.312-7.96,19.572,19.572,0,0,1,1.317-7.053,15.053,15.053,0,0,1,5.937-7.482,14.738,14.738,0,0,1,10.29-2.14c5.662.806,9.454,4.079,11.672,9.306a19.276,19.276,0,0,1,1.542,8.515,20.384,20.384,0,0,1-2,8.181,14.653,14.653,0,0,1-9.38,7.875,16.517,16.517,0,0,1-4.5.46q-.274.018-.556.018A13.537,13.537,0,0,1,47.079,34.629ZM53.243,3.143a7.5,7.5,0,0,0-3.8,1.589,10.656,10.656,0,0,0-3.071,4.009A25.789,25.789,0,0,0,44.4,18.578c-.013.376.05.753.068,1.129.04.842.075,1.683.114,2.525a12.094,12.094,0,0,0,.581,3.728c.076.2.1.428.159.64a15.069,15.069,0,0,0,2.837,5.711A7.88,7.88,0,0,0,60.1,32.76a12.928,12.928,0,0,0,2.759-4.6A28.155,28.155,0,0,0,64.273,19.2a35.461,35.461,0,0,0-.834-7.131,13.764,13.764,0,0,0-3.055-6.18,7.806,7.806,0,0,0-5.958-2.829A8.916,8.916,0,0,0,53.243,3.143ZM166.535,36.262a3.647,3.647,0,0,1-2.728-2.205,16.807,16.807,0,0,1-.6-2.007c-.025-.086-.035-.178-.071-.375-.136.227-.217.354-.29.485a7.688,7.688,0,0,1-7.142,4.188,11.958,11.958,0,0,1-2.6-.292,5.929,5.929,0,0,1-4.366-3.892,9.305,9.305,0,0,1-.6-3.474q.012-7.347.011-14.695a1.467,1.467,0,0,0-1.522-1.691c-.507-.059-1.011-.132-1.5-.2-.087-.745.015-.841.637-.892,1.405-.119,2.807-.288,4.212-.4.926-.076,1.857-.092,2.855-.138.025.472.065.886.065,1.3q.005,8.553,0,17.1a8.244,8.244,0,0,0,.512,2.945,4.581,4.581,0,0,0,1.228,1.825,3.511,3.511,0,0,0,3.15.86A5.386,5.386,0,0,0,160.7,33.1a7.4,7.4,0,0,0,2.143-5.49q-.012-6.655,0-13.31c0-.221,0-.442-.012-.663-.052-.813-.27-1.074-1.08-1.238-.428-.088-.865-.13-1.3-.195-.192-.03-.383-.068-.56-.1-.1-.766,0-.836.671-.889,1.386-.109,2.767-.273,4.152-.394.811-.071,1.625-.108,2.439-.153a2.126,2.126,0,0,1,.4.066c.012.345.036.679.036,1.011q0,7.8,0,15.6c0,1.646-.008,3.292.013,4.938a5.492,5.492,0,0,0,.174,1.367,1.456,1.456,0,0,0,2.466.677,4.718,4.718,0,0,0,.583-.757c.148-.211.27-.441.438-.716l.612.246a2.179,2.179,0,0,1-.037.37,3.853,3.853,0,0,1-3.059,2.8,4.832,4.832,0,0,1-1.085.121A5.563,5.563,0,0,1,166.535,36.262Zm-77.669-.691c-.031-.2-.061-.388-.1-.644.51-.077.978-.127,1.437-.223.4-.084.8-.215,1.193-.338a.484.484,0,0,0,.345-.444,6.576,6.576,0,0,0,.106-.77q0-8.009-.01-16.016a5.633,5.633,0,0,0-1.258-3.559,3.248,3.248,0,0,0-1.942-1.194A5.14,5.14,0,0,0,83.4,14.2a7.664,7.664,0,0,0-1.876,5.2c0,4.556.01,9.112.017,13.668,0,.12.011.24.02.36.063.8.249,1.028,1.049,1.188.62.124,1.25.2,1.929.3v.627H73.758l-.033-.633c.544-.067,1.058-.1,1.557-.2a3.182,3.182,0,0,0,.989-.358,1.115,1.115,0,0,0,.528-1.057c-.017-6.462-.008-12.925-.008-19.388a1.438,1.438,0,0,0-1.429-1.589c-.532-.06-1.062-.126-1.669-.2l.132-.867c2.5-.011,4.935-.651,7.5-.522a14.886,14.886,0,0,1-.08,2.655,4.5,4.5,0,0,0-.014,1.922c.19-.281.307-.474.445-.652a12.888,12.888,0,0,1,1.46-1.811,8.4,8.4,0,0,1,5.781-2.185,10.83,10.83,0,0,1,2.724.211,6.416,6.416,0,0,1,4.874,5.729c.052.538.081,1.081.082,1.622q.014,7.436.014,14.871a1.456,1.456,0,0,0,1.543,1.628,8.532,8.532,0,0,1,1.117.143c.381.074.377.094.339.668q-3.012.13-6.041.131Q91.23,35.653,88.866,35.572Zm85.11-.06c-.01-.178-.02-.366-.033-.6.552-.07,1.066-.109,1.568-.208a3.051,3.051,0,0,0,.935-.336,1.192,1.192,0,0,0,.581-1.151c-.02-6.364-.012-12.727-.017-19.091a2.846,2.846,0,0,0-.084-.831,1.373,1.373,0,0,0-1.248-.966c-.413-.054-.829-.091-1.243-.143s-.51-.141-.5-.444.187-.479.54-.51c.772-.068,1.544-.129,2.315-.2q2.079-.184,4.156-.371c.1-.008.2,0,.427,0v5.314l.144.028c.087-.191.182-.377.259-.572a9.244,9.244,0,0,1,1.534-2.634,6.016,6.016,0,0,1,4.076-2.138,6.585,6.585,0,0,1,3,.281,4.076,4.076,0,0,1,2.547,4.521,3.6,3.6,0,0,1-2.444,3.06,12.825,12.825,0,0,1-1.588.324,5.2,5.2,0,0,1-.182-1.4,17.334,17.334,0,0,0-.256-1.964,6.006,6.006,0,0,0-.608-1.557,2.074,2.074,0,0,0-2.325-.9,3.9,3.9,0,0,0-2.764,2.588,14.121,14.121,0,0,0-.853,3.8,52.8,52.8,0,0,0-.161,6.074c.025,1.987-.018,3.973-.021,5.96,0,.6.039,1.2.043,1.805a1.022,1.022,0,0,0,.866,1.113,18.678,18.678,0,0,0,1.869.332c.845.094,1.7.127,2.589.19l.039.519a71.094,71.094,0,0,1-7.852.241C176.766,35.646,174.486,35.6,173.975,35.511Zm-159.442.111Q7.643,35.617.755,35.6c-.234,0-.468,0-.755,0v-.709c.471-.058.939-.109,1.4-.174s.947-.12,1.41-.227a.935.935,0,0,0,.819-1.022c.01-.221,0-.442,0-.662V5.165c0-.955-.291-1.346-1.233-1.5-.6-.1-1.224-.1-1.837-.139C.388,3.514.214,3.506.013,3.5V2.648c.4-.017.8-.048,1.19-.047q1.685,0,3.371,0c2.933,0,5.865-.008,8.8.054a14.513,14.513,0,0,1,6.4,1.489,6.817,6.817,0,0,1,3.945,5.709,7.066,7.066,0,0,1-2.228,5.926,11.314,11.314,0,0,1-3.865,2.328c-.167.064-.332.131-.495.2-.031.013-.049.059-.1.13a3.271,3.271,0,0,0,.368.145,12.354,12.354,0,0,1,4.929,2.458,7.617,7.617,0,0,1,2.739,5.23,7.688,7.688,0,0,1-.421,3.779,7.94,7.94,0,0,1-4.3,4.369,13.874,13.874,0,0,1-5.777,1.2ZM9.988,19.3c-.443.006-.885.011-1.327.011a.836.836,0,0,0-.222.068V34.327H8.85c1.291,0,2.582.038,3.871,0a13.828,13.828,0,0,0,2.3-.246,5.426,5.426,0,0,0,4.062-3.119,8.791,8.791,0,0,0-.13-8.052,6.511,6.511,0,0,0-5.767-3.572c-.643-.039-1.288-.05-1.934-.05C10.832,19.289,10.41,19.294,9.988,19.3ZM9.464,18a19.2,19.2,0,0,0,3.663-.187,5.987,5.987,0,0,0,5.063-4.5,9.373,9.373,0,0,0,.115-4.7,5.723,5.723,0,0,0-5.118-4.594c-1.068-.1-2.145-.1-3.223-.095-.472,0-.946,0-1.417,0-.032,0-.065.041-.127.08V17.989h.138C8.862,17.989,9.165,17.992,9.464,18ZM31.3,14.824c-.4-4.77-.92-9.506-1.011-14.25a2.765,2.765,0,0,1,2.7-.4c.6.181.641.263.626.906-.029,1.265-.042,2.531-.119,3.792-.111,1.8-.264,3.6-.419,5.4-.121,1.419-.271,2.836-.409,4.253-.008.078-.024.156-.046.3Z" transform="translate(315 127.076)" fill="#fff" stroke="rgba(0,0,0,0)" stroke-miterlimit="10" stroke-width="1"/>
  </g>
</svg>
