<svg xmlns="http://www.w3.org/2000/svg" xmlns:xlink="http://www.w3.org/1999/xlink" width="51.718" height="21.21" viewBox="0 0 51.718 21.21">
  <defs>
    <linearGradient id="linear-gradient" x1="0.182" y1="0.186" x2="0.818" y2="0.814" gradientUnits="objectBoundingBox">
      <stop offset="0" stop-color="#f38e0a"/>
      <stop offset="1" stop-color="#d6132c"/>
    </linearGradient>
    <linearGradient id="linear-gradient-2" x1="0.304" y1="0.301" x2="0.696" y2="0.699" xlink:href="#linear-gradient"/>
  </defs>
  <g id="Grupo_2203" data-name="Grupo 2203" transform="translate(-128.64 -314.346)">
    <g id="Grupo_2198" data-name="Grupo 2198" transform="translate(128.64 314.346)">
      <g id="Grupo_2196" data-name="Grupo 2196" transform="translate(0.141)">
        <path id="Caminho_196" data-name="Caminho 196" d="M141.671,335.556,128.934,322.1l8.191-7.753L149.863,327.8Zm-11.886-13.434,11.91,12.583,7.316-6.925L137.1,315.2Z" transform="translate(-128.934 -314.346)" fill="url(#linear-gradient)"/>
      </g>
      <g id="Grupo_2197" data-name="Grupo 2197" transform="translate(0 0.141)">
        <path id="Caminho_197" data-name="Caminho 197" d="M136.393,335.568l-7.753-8.191L142.1,314.64l7.752,8.19Zm-6.9-8.167,6.925,7.316L149,322.807l-6.925-7.315Z" transform="translate(-128.64 -314.64)" fill="url(#linear-gradient-2)"/>
      </g>
    </g>
    <g id="Grupo_2202" data-name="Grupo 2202" transform="translate(154.354 321.158)">
      <g id="Grupo_2200" data-name="Grupo 2200" transform="translate(0 0)">
        <g id="Grupo_2199" data-name="Grupo 2199">
          <path id="Caminho_198" data-name="Caminho 198" d="M184.636,333.7h-.751v2.271h-1.579v-6.912h2.765a2.365,2.365,0,0,1,2.37,2.37,2.279,2.279,0,0,1-1.274,2l1.471,2.538h-1.7Zm-.751-1.382h1.185a.895.895,0,0,0,0-1.777h-1.185Z" transform="translate(-182.306 -328.821)" fill="#3b4148"/>
          <path id="Caminho_199" data-name="Caminho 199" d="M195.569,336.782a1.29,1.29,0,0,0,.948-.375l1.185.681a2.506,2.506,0,0,1-2.153,1.017,2.609,2.609,0,1,1-.109-5.214,2.493,2.493,0,0,1,2.508,2.607,2.854,2.854,0,0,1-.059.593h-3.5A1.123,1.123,0,0,0,195.569,336.782Zm.908-1.8a1.112,1.112,0,0,0-2.123,0Z" transform="translate(-187.779 -330.818)" fill="#3b4148"/>
          <path id="Caminho_200" data-name="Caminho 200" d="M205.387,333.1v1.748c0,.425.365.464,1.017.425v1.343c-1.935.2-2.5-.385-2.5-1.768V333.1h-.79v-1.422h.79v-.938l1.482-.444v1.382H206.4V333.1Z" transform="translate(-193.145 -329.466)" fill="#3b4148"/>
          <path id="Caminho_201" data-name="Caminho 201" d="M210.389,329.453a.889.889,0,1,1,.889.888A.9.9,0,0,1,210.389,329.453Zm.148,1.323h1.481v4.937h-1.481Z" transform="translate(-196.933 -328.564)" fill="#3b4148"/>
          <path id="Caminho_202" data-name="Caminho 202" d="M219.765,334.936v3.031h-1.481v-2.814a.814.814,0,0,0-.859-.9c-.543,0-.918.316-.918,1.017v2.7h-1.482v-4.937h1.482v.464a1.687,1.687,0,0,1,1.412-.6A1.847,1.847,0,0,1,219.765,334.936Z" transform="translate(-199.348 -330.818)" fill="#3b4148"/>
          <path id="Caminho_203" data-name="Caminho 203" d="M230.8,333.029v4.937h-1.481V337.5a1.854,1.854,0,0,1-1.471.6,2.62,2.62,0,0,1,0-5.214,1.854,1.854,0,0,1,1.471.6v-.464Zm-1.481,2.469a1.175,1.175,0,1,0-1.175,1.2A1.128,1.128,0,0,0,229.323,335.5Z" transform="translate(-204.8 -330.818)" fill="#3b4148"/>
        </g>
      </g>
      <g id="Grupo_2201" data-name="Grupo 2201" transform="translate(13.605 8.233)">
        <path id="Caminho_204" data-name="Caminho 204" d="M212.51,346.818,212.1,348.1h-.141l-.357-1.094-.357,1.094h-.141l-.406-1.285h.136l.342,1.118.36-1.118h.134l.359,1.118.342-1.118Z" transform="translate(-210.701 -346.304)" fill="#3b4148"/>
        <path id="Caminho_205" data-name="Caminho 205" d="M215.8,347.435c0,.02,0,.041,0,.061h-1.163a.523.523,0,0,0,.545.481.489.489,0,0,0,.444-.234l.113.067a.633.633,0,0,1-.56.29.672.672,0,1,1,.624-.665Zm-1.166-.064h1.033a.5.5,0,0,0-.5-.488A.517.517,0,0,0,214.639,347.371Z" transform="translate(-212.682 -346.274)" fill="#3b4148"/>
        <path id="Caminho_206" data-name="Caminho 206" d="M218.921,346.9a.662.662,0,0,1-.666.67.608.608,0,0,1-.552-.326v.3h-.128v-1.8h.128v.812a.608.608,0,0,1,.552-.327A.662.662,0,0,1,218.921,346.9Zm-.128,0a.545.545,0,1,0-.544.547A.54.54,0,0,0,218.792,346.9Z" transform="translate(-214.281 -345.746)" fill="#3b4148"/>
        <path id="Caminho_207" data-name="Caminho 207" d="M223.094,345.746v1.8h-.128v-.3a.609.609,0,0,1-.552.326.671.671,0,0,1,0-1.341.608.608,0,0,1,.552.327v-.812Zm-.128,1.156a.545.545,0,1,0-.545.547A.541.541,0,0,0,222.966,346.9Z" transform="translate(-216.455 -345.746)" fill="#3b4148"/>
        <path id="Caminho_208" data-name="Caminho 208" d="M226.23,347.435c0,.02,0,.041,0,.061h-1.164a.523.523,0,0,0,.544.481.489.489,0,0,0,.445-.234l.113.067a.633.633,0,0,1-.56.29.672.672,0,1,1,.624-.665Zm-1.166-.064H226.1a.5.5,0,0,0-.5-.488A.518.518,0,0,0,225.064,347.371Z" transform="translate(-218.112 -346.274)" fill="#3b4148"/>
        <path id="Caminho_209" data-name="Caminho 209" d="M228.67,347.736c0,.211-.185.365-.46.365a.482.482,0,0,1-.488-.285l.11-.064a.366.366,0,0,0,.378.226c.18,0,.332-.08.332-.241,0-.349-.779-.149-.779-.611a.392.392,0,0,1,.437-.365.455.455,0,0,1,.437.257l-.108.062a.335.335,0,0,0-.329-.2c-.167,0-.309.087-.309.241C227.891,347.468,228.67,347.265,228.67,347.736Z" transform="translate(-219.567 -346.274)" fill="#3b4148"/>
        <path id="Caminho_210" data-name="Caminho 210" d="M229.971,345.846a.1.1,0,1,1,.1.1A.1.1,0,0,1,229.971,345.846Zm.039.414h.128v1.285h-.128Z" transform="translate(-220.738 -345.746)" fill="#3b4148"/>
        <path id="Caminho_211" data-name="Caminho 211" d="M232.062,346.787v1.223a.591.591,0,0,1-.64.6.633.633,0,0,1-.607-.308l.113-.064a.5.5,0,0,0,.494.249.46.46,0,0,0,.511-.481v-.237a.609.609,0,0,1-.552.326.671.671,0,0,1,0-1.341.608.608,0,0,1,.552.327v-.3Zm-.128.643a.545.545,0,1,0-.545.547A.541.541,0,0,0,231.934,347.43Z" transform="translate(-221.126 -346.274)" fill="#3b4148"/>
        <path id="Caminho_212" data-name="Caminho 212" d="M235.168,347.273v.8h-.131v-.8a.354.354,0,0,0-.378-.391c-.252,0-.449.164-.449.511v.678h-.128v-1.285h.128v.244a.483.483,0,0,1,.46-.273A.474.474,0,0,1,235.168,347.273Z" transform="translate(-222.879 -346.274)" fill="#3b4148"/>
      </g>
    </g>
  </g>
</svg>
