<svg id="Grupo_103" data-name="Grupo 103" xmlns="http://www.w3.org/2000/svg" width="212" height="151.985" viewBox="0 0 212 151.985">
  <path id="Caminho_44" data-name="Caminho 44" d="M559.431,244.047a54.689,54.689,0,1,1,54.736-54.707A54.726,54.726,0,0,1,559.431,244.047Zm50.288-54.685A50.25,50.25,0,1,0,559.454,239.6,50.293,50.293,0,0,0,609.718,189.362Z" transform="translate(-453.474 -134.669)" fill="#fff"/>
  <path id="Caminho_45" data-name="Caminho 45" d="M292.219,528.957v-.879c.591-.072,1.175-.135,1.757-.216s1.186-.149,1.766-.282a1.161,1.161,0,0,0,1.025-1.268c.013-.273,0-.548,0-.822V491.2c0-1.185-.365-1.671-1.543-1.859-.757-.121-1.534-.12-2.3-.173-.217-.015-.435-.025-.687-.04v-1.05c.508-.021,1-.06,1.491-.059,5.081.009,10.162-.043,15.241.065a18.325,18.325,0,0,1,8.013,1.847,8.462,8.462,0,0,1,4.941,7.083,8.724,8.724,0,0,1-2.791,7.354,14.19,14.19,0,0,1-4.841,2.887q-.313.119-.62.254c-.039.017-.062.073-.131.161a4.035,4.035,0,0,0,.459.18,15.531,15.531,0,0,1,6.175,3.05,10.249,10.249,0,0,1,2.9,11.177,9.893,9.893,0,0,1-5.391,5.42,17.519,17.519,0,0,1-7.26,1.492q-8.63-.008-17.259-.027Zm10.57-1.579h.516c1.617.005,3.234.047,4.849,0a17.538,17.538,0,0,0,2.882-.3,6.789,6.789,0,0,0,5.088-3.87,10.812,10.812,0,0,0-.162-9.991,8.165,8.165,0,0,0-7.224-4.433c-1.884-.112-3.779-.035-5.67-.038a1.029,1.029,0,0,0-.279.086Zm-.022-20.272a33.782,33.782,0,0,0,5.9-.223A7.472,7.472,0,0,0,315,501.306a11.524,11.524,0,0,0,.146-5.834,7.144,7.144,0,0,0-6.412-5.7c-1.924-.181-3.873-.093-5.811-.122-.041,0-.083.05-.16.1Z" transform="translate(-292.219 -378.001)" fill="#fff"/>
  <path id="Caminho_46" data-name="Caminho 46" d="M467.717,527.911a16.454,16.454,0,0,1-8.51-2.166,18.542,18.542,0,0,1-8.487-9.87A25.692,25.692,0,0,1,449.077,506a24.046,24.046,0,0,1,1.649-8.75,18.467,18.467,0,0,1,20.326-11.939c7.092,1,11.841,5.061,14.62,11.547a23.7,23.7,0,0,1,1.932,10.564,25.068,25.068,0,0,1-2.506,10.15,18.3,18.3,0,0,1-11.748,9.77A20.821,20.821,0,0,1,467.717,527.911Zm13.028-21.305a43.62,43.62,0,0,0-1.045-8.847,17,17,0,0,0-3.827-7.668,9.767,9.767,0,0,0-8.944-3.409,9.437,9.437,0,0,0-4.757,1.971,13.237,13.237,0,0,0-3.847,4.975,31.71,31.71,0,0,0-2.477,12.2c-.017.465.062.933.085,1.4.051,1.044.093,2.088.142,3.132a14.885,14.885,0,0,0,.727,4.625c.1.254.129.532.2.8a18.613,18.613,0,0,0,3.554,7.085,9.931,9.931,0,0,0,14.96.556,16.007,16.007,0,0,0,3.457-5.7A34.681,34.681,0,0,0,480.745,506.606Z" transform="translate(-407.387 -375.994)" fill="#fff"/>
  <path id="Caminho_47" data-name="Caminho 47" d="M894.468,521.946c-.121-.95-.007-1.037.839-1.1,1.736-.135,3.466-.338,5.2-.489,1.016-.088,2.037-.134,3.056-.189a2.7,2.7,0,0,1,.5.082c.016.427.045.841.045,1.255q0,9.676,0,19.353c0,2.043-.011,4.085.016,6.127a6.755,6.755,0,0,0,.217,1.7,1.83,1.83,0,0,0,3.09.84,5.825,5.825,0,0,0,.73-.939c.184-.262.339-.546.548-.889l.766.306a2.576,2.576,0,0,1-.047.459,4.807,4.807,0,0,1-3.831,3.473,6.539,6.539,0,0,1-2.82-.008,4.565,4.565,0,0,1-3.417-2.738,20.76,20.76,0,0,1-.754-2.49c-.031-.107-.043-.221-.089-.465-.17.281-.272.44-.364.6a9.644,9.644,0,0,1-8.946,5.2,15.066,15.066,0,0,1-3.254-.362,7.4,7.4,0,0,1-5.469-4.828,11.465,11.465,0,0,1-.756-4.31q.015-9.117.014-18.232a1.827,1.827,0,0,0-1.906-2.1c-.635-.073-1.268-.164-1.88-.244-.108-.925.02-1.043.8-1.108,1.76-.147,3.514-.357,5.274-.5,1.161-.094,2.327-.114,3.578-.171.031.586.081,1.1.082,1.613q.008,10.611,0,21.221a10.169,10.169,0,0,0,.642,3.655,5.664,5.664,0,0,0,1.537,2.263,4.425,4.425,0,0,0,3.946,1.068,6.778,6.778,0,0,0,3.663-2,9.135,9.135,0,0,0,2.683-6.813q-.015-8.257,0-16.514c0-.274,0-.548-.014-.821-.066-1.01-.339-1.333-1.354-1.537-.536-.108-1.083-.16-1.624-.242C894.929,522.032,894.689,521.985,894.468,521.946Z" transform="translate(-723.936 -400.144)" fill="#fff"/>
  <path id="Caminho_48" data-name="Caminho 48" d="M602.266,550.193v.777h-13.5l-.042-.784c.682-.083,1.324-.127,1.951-.251a4.005,4.005,0,0,0,1.238-.444,1.377,1.377,0,0,0,.662-1.312q-.029-12.027-.009-24.054a1.79,1.79,0,0,0-1.791-1.972c-.665-.074-1.33-.157-2.09-.248l.165-1.075c3.135-.015,6.183-.808,9.4-.649a18.344,18.344,0,0,1-.1,3.294,5.526,5.526,0,0,0-.018,2.385c.239-.348.385-.589.558-.808a16.02,16.02,0,0,1,1.829-2.248,10.594,10.594,0,0,1,7.24-2.711,13.709,13.709,0,0,1,3.414.263,7.98,7.98,0,0,1,6.1,7.108c.066.668.1,1.341.1,2.012q.018,9.226.018,18.452a1.814,1.814,0,0,0,1.932,2.019,11.09,11.09,0,0,1,1.4.177c.477.093.472.117.425.83-4.457.191-8.924.217-13.462.062l-.127-.8c.638-.1,1.225-.158,1.8-.277.506-.105,1-.268,1.5-.419a.6.6,0,0,0,.432-.551,8.125,8.125,0,0,0,.132-.956q.006-9.935-.011-19.871a6.954,6.954,0,0,0-1.576-4.416,4.065,4.065,0,0,0-2.432-1.481,6.473,6.473,0,0,0-6.562,2.249,9.452,9.452,0,0,0-2.35,6.451c-.007,5.652.012,11.3.021,16.957,0,.149.013.3.025.447.079.988.311,1.277,1.314,1.475C600.627,549.976,601.417,550.065,602.266,550.193Z" transform="translate(-509.498 -400.093)" fill="#fff"/>
  <path id="Caminho_49" data-name="Caminho 49" d="M723.112,545.984c-.173.337-.283.551-.394.765a8.756,8.756,0,0,1-6.131,4.924,11.9,11.9,0,0,1-5.766-.1,7.425,7.425,0,0,1-1.7-13.34,15.794,15.794,0,0,1,5.637-2.093,32.866,32.866,0,0,1,5.554-.659c.838-.014,1.673-.177,2.55-.277.018-.266.046-.484.046-.7q0-3.213,0-6.425a12.7,12.7,0,0,0-.739-4.018,4.286,4.286,0,0,0-6.694-1.911,5.808,5.808,0,0,0-1.79,2.44,10.069,10.069,0,0,0-.8,4,8.146,8.146,0,0,1-.164,1.315,2.89,2.89,0,0,1-1.734.037,6.188,6.188,0,0,1-1.329-.479,3.628,3.628,0,0,1-1.9-4.68,4.932,4.932,0,0,1,2.017-2.52,13.613,13.613,0,0,1,5.333-2.024,19.071,19.071,0,0,1,6.1-.046,8.4,8.4,0,0,1,7.216,7.164,26.369,26.369,0,0,1,.433,4.9c.01,5.105,0,10.211.011,15.316a3.63,3.63,0,0,0,.163,1.013,1.987,1.987,0,0,0,3.347.568c.305-.39.553-.825.854-1.218.106-.139.31-.317.443-.3a.481.481,0,0,1,.379.562,2.208,2.208,0,0,1-.137.578,4.245,4.245,0,0,1-2.018,2.408,6.1,6.1,0,0,1-5.673.2,4.278,4.278,0,0,1-2.118-2.124,6.588,6.588,0,0,1-.775-2.63A2.686,2.686,0,0,0,723.112,545.984Zm-.309-9.366a2.744,2.744,0,0,0-.358,0q-1.664.215-3.326.439a13.279,13.279,0,0,0-4.376,1.415,4.417,4.417,0,0,0-1.975,1.871,7.271,7.271,0,0,0,.152,7.4,3.035,3.035,0,0,0,1.824,1.455,5.3,5.3,0,0,0,4.053-.375,7.462,7.462,0,0,0,3.942-5.659,34.377,34.377,0,0,0,.143-6.4C722.88,536.718,722.836,536.676,722.8,536.619Z" transform="translate(-594.87 -400.005)" fill="#fff"/>
  <path id="Caminho_50" data-name="Caminho 50" d="M1001.266,519.977v6.592l.181.035c.109-.236.227-.468.324-.709a11.462,11.462,0,0,1,1.921-3.268,7.561,7.561,0,0,1,5.106-2.653,8.332,8.332,0,0,1,3.759.349,5.052,5.052,0,0,1,3.192,5.61,4.476,4.476,0,0,1-3.062,3.8,16.4,16.4,0,0,1-1.988.4,6.36,6.36,0,0,1-.229-1.733,21.7,21.7,0,0,0-.32-2.437,7.448,7.448,0,0,0-.762-1.931,2.608,2.608,0,0,0-2.912-1.121,4.868,4.868,0,0,0-3.462,3.211,17.392,17.392,0,0,0-1.069,4.717,65.059,65.059,0,0,0-.2,7.536c.031,2.464-.022,4.93-.026,7.4,0,.746.049,1.493.054,2.24a1.271,1.271,0,0,0,1.086,1.381c.775.163,1.554.326,2.34.412,1.059.115,2.127.157,3.244.234l.049.644c-.359.325-14.94.408-16.492.131-.012-.22-.025-.453-.041-.748.692-.087,1.335-.135,1.964-.258a3.812,3.812,0,0,0,1.171-.418,1.477,1.477,0,0,0,.727-1.428c-.026-7.9-.015-15.79-.021-23.685a3.468,3.468,0,0,0-.106-1.031,1.717,1.717,0,0,0-1.563-1.2c-.518-.067-1.039-.114-1.557-.177s-.639-.175-.623-.551.234-.595.676-.634c.967-.085,1.934-.16,2.9-.244q2.6-.228,5.2-.46C1000.854,519.968,1000.978,519.977,1001.266,519.977Z" transform="translate(-803.829 -399.966)" fill="#fff"/>
  <path id="Caminho_51" data-name="Caminho 51" d="M806.794,504.954h-3.8V503.71a6.06,6.06,0,0,1,1.828-.1c.593-.025,1.188-.006,1.882-.006.036-2.313,0-4.567.023-6.9l5.912-1.925c.039.5.1.906.1,1.314,0,2.191-.007,4.382-.013,6.573,0,.267,0,.535,0,.9h10.336v1.368c-3.4.113-6.8-.024-10.262.08-.026.405-.07.769-.07,1.133q0,9.711.013,19.422a12.963,12.963,0,0,0,.669,4.108,4.142,4.142,0,0,0,2.346,2.745,3.319,3.319,0,0,0,.851.24,7.608,7.608,0,0,0,5.482-1.5c.364-.26.715-.537,1.111-.837l.927.806c-.162.178-.28.333-.422.462a11,11,0,0,1-9.952,2.81,8.162,8.162,0,0,1-6.607-6.685,17.094,17.094,0,0,1-.354-3.484q.018-9.151.006-18.3Z" transform="translate(-665.401 -382.662)" fill="#fff"/>
  <path id="Caminho_52" data-name="Caminho 52" d="M416.972,496.054h-1.654c-.505-5.919-1.151-11.794-1.266-17.681a3.487,3.487,0,0,1,3.381-.493c.755.224.8.326.785,1.124-.036,1.568-.053,3.138-.15,4.7-.139,2.235-.331,4.468-.523,6.7-.152,1.761-.34,3.518-.513,5.276C417.021,495.781,417,495.877,416.972,496.054Z" transform="translate(-376.116 -370.872)" fill="#fff"/>
  <path id="Caminho_53" data-name="Caminho 53" d="M612.345,260.426l3.346,3.375c-.159.144-.341.331-.544.492a15.416,15.416,0,0,1-20.288-1.032,14.934,14.934,0,0,1-4.591-12.964,15.255,15.255,0,0,1,13.406-13.426,21.584,21.584,0,0,1,15.518,4.354A22.11,22.11,0,0,1,628.3,256.84a22.976,22.976,0,0,1-18.748,25.4,16.46,16.46,0,0,1-2.823.238q-12.7.027-25.407.012c-5.256,0-10.512.058-15.767-.026a22.574,22.574,0,0,1-14.942-5.557,22.23,22.23,0,0,1-7.741-14.64A22.862,22.862,0,0,1,559.4,237.576a19.656,19.656,0,0,1,7.387-.8c6.46.673,11.02,4.051,13.314,10.128a15.317,15.317,0,0,1-10.1,20.043,15.083,15.083,0,0,1-13.91-2.618c-.213-.161-.406-.35-.586-.508l3.412-3.354c.131.09.354.242.575.4a10.635,10.635,0,1,0,8.444-19.076,12.957,12.957,0,0,0-5.78.078c-7.376,1.666-12.2,6.146-14.1,13.463a17.992,17.992,0,0,0,13.872,21.989,19.12,19.12,0,0,0,3.707.359c13.3.025,26.6,0,39.9.021A18.083,18.083,0,0,0,608.6,241.79a13.441,13.441,0,0,0-5.993.163,10.636,10.636,0,0,0,1.058,20.665,10.49,10.49,0,0,0,8.213-1.875C612.036,260.629,612.2,260.523,612.345,260.426Z" transform="translate(-479.6 -204.932)" fill="#fff"/>
</svg>
