<svg xmlns="http://www.w3.org/2000/svg" width="45" height="44" viewBox="0 0 45 44">
  <g id="Grupo_2424" data-name="Grupo 2424" transform="translate(-305 -4270)">
    <rect id="Retângulo_95" data-name="Retângulo 95" width="45" height="44" rx="10" transform="translate(305 4270)" fill="#fff" opacity="0.6"/>
    <path id="Caminho_237" data-name="Caminho 237" d="M27.215,6.749,20.631.165a.564.564,0,0,0-.8,0L17.639,2.36a.564.564,0,0,0,0,.8l.446.446L11.7,8.573a3.681,3.681,0,0,0-4.419.6l-.989.989a.564.564,0,0,0,0,.8l3,3L.109,26.482a.564.564,0,0,0,.789.789L13.424,18.1l3,3a.564.564,0,0,0,.8,0l.989-.989a3.685,3.685,0,0,0,.6-4.419l4.97-6.39.446.446a.564.564,0,0,0,.8,0l2.195-2.195a.564.564,0,0,0,0-.8ZM3.179,24.2l6.913-9.438,2.525,2.525Zm14.232-4.895-.59.59L7.483,10.559l.59-.59a2.554,2.554,0,0,1,3.608,0l5.73,5.73A2.554,2.554,0,0,1,17.411,19.306Zm.673-4.53L12.6,9.3l6.285-4.888,4.084,4.084Zm6.537-6.231L18.836,2.759l1.4-1.4,5.786,5.786Z" transform="translate(310.231 4299.957) rotate(-71)" fill="#707070"/>
  </g>
</svg>
