<svg xmlns="http://www.w3.org/2000/svg" width="46.237" height="54.365" viewBox="0 0 46.237 54.365">
  <g id="surface1" transform="translate(0.472 0.675)" opacity="0.45">
    <path id="Caminho_32" data-name="Caminho 32" d="M45.241,14.431l0-.041c-.023-.511-.039-1.052-.048-1.653a5.637,5.637,0,0,0-5.308-5.523A21.875,21.875,0,0,1,25,.939L24.961.906a3.4,3.4,0,0,0-4.626,0L20.3.939A21.877,21.877,0,0,1,5.412,7.214,5.637,5.637,0,0,0,.1,12.737c-.009.6-.025,1.138-.048,1.653l0,.1c-.119,6.236-.267,14,2.33,21.041A26.785,26.785,0,0,0,8.809,45.536a33.615,33.615,0,0,0,12.575,7.438,3.9,3.9,0,0,0,.515.14,3.806,3.806,0,0,0,1.5,0,3.906,3.906,0,0,0,.517-.141,33.637,33.637,0,0,0,12.562-7.442A26.823,26.823,0,0,0,42.9,35.52C45.507,28.454,45.36,20.679,45.241,14.431ZM39.973,34.44c-2.738,7.425-8.328,12.524-17.089,15.587a.784.784,0,0,1-.1.027.7.7,0,0,1-.274,0,.778.778,0,0,1-.1-.026c-8.77-3.058-14.364-8.154-17.1-15.579-2.393-6.493-2.257-13.618-2.138-19.9V14.51c.024-.54.041-1.106.05-1.728a2.506,2.506,0,0,1,2.361-2.452A27.384,27.384,0,0,0,14.88,8.286,24.317,24.317,0,0,0,22.455,3.2a.288.288,0,0,1,.386,0,24.326,24.326,0,0,0,7.574,5.089,27.385,27.385,0,0,0,9.295,2.044,2.5,2.5,0,0,1,2.361,2.453c.009.625.026,1.191.05,1.727C42.24,20.8,42.373,27.933,39.973,34.44Zm0,0" transform="translate(0 0.001)" fill="#949494" stroke="#fff" stroke-width="1"/>
    <path id="Caminho_33" data-name="Caminho 33" d="M103.654,128.41a13.256,13.256,0,1,0,13.256,13.256A13.271,13.271,0,0,0,103.654,128.41Zm0,23.39a10.135,10.135,0,1,1,10.134-10.135A10.146,10.146,0,0,1,103.654,151.8Zm0,0" transform="translate(-81.007 -115.07)" fill="#949494" stroke="#fff" stroke-width="1"/>
    <path id="Caminho_34" data-name="Caminho 34" d="M164.165,212.449l-6.157,6.157-1.671-1.671a1.561,1.561,0,1,0-2.207,2.207l2.775,2.775a1.561,1.561,0,0,0,2.207,0l7.261-7.261a1.561,1.561,0,0,0-2.207-2.207Zm0,0" transform="translate(-137.708 -189.968)" fill="#949494" stroke="#fff" stroke-width="1"/>
  </g>
</svg>
